<svg xmlns="http://www.w3.org/2000/svg" width="436.891" height="436.891"><g transform="translate(-616.369 -86.055)" fill="#d5d7db"><circle cx="152.003" cy="152.003" r="152.003" transform="translate(682.811 152.497)" opacity=".204"/><circle cx="218.445" cy="218.445" r="218.445" transform="translate(616.369 86.055)" opacity=".152"/></g><path d="M355.542 107.947a5.368 5.368 0 0 0-1.442-6.771l-31.737-24.684a5.372 5.372 0 0 0-5.5-.649 5.841 5.841 0 0 0-1.354.848 6.821 6.821 0 0 0-.639.681l40.21 31.282a5.01 5.01 0 0 0 .462-.707Z" fill="#e0e0e0"/><path d="M314.869 77.375c-.016.032-.04.042-.061.061-.156.215-.3.411-.432.633a5.428 5.428 0 0 0 1.4 6.919l31.732 24.665a5.329 5.329 0 0 0 5.48.668 5.438 5.438 0 0 0 1.4-.9 8.264 8.264 0 0 0 .652-.7.265.265 0 0 1 .037-.061Zm40.673 30.572L315.748 76.84a1.064 1.064 0 0 0-.241-.146.942.942 0 0 0-.7.016.954.954 0 0 0-.368.3l-.005.021 40.647 31.626a5.01 5.01 0 0 0 .461-.71Z" fill="#ccc"/><path d="M314.428 77.036a.894.894 0 0 0-.053 1.034.645.645 0 0 0 .225.241l39.789 31.107a8.264 8.264 0 0 0 .652-.7.265.265 0 0 1 .037-.061Z" fill="#e0e0e0"/><path d="M296.347 62.974a57.125 57.125 0 0 0-5.592 9.066 3.221 3.221 0 0 1-4.147 1.537 3.137 3.137 0 0 1-1.3-4.357 61.628 61.628 0 0 1 6.18-10.023l-4.259-3.321c-1.32 1.7-2.632 3.387-4.389 5.645-3.056 3.93-2.907 10.248.647 13.783a91.182 91.182 0 0 0 20.773 16.149c4.3 2.571 10.457 1.155 13.51-2.777 1.76-2.255 3.066-3.941 4.378-5.631Z" fill="#ccc"/><path d="M299.561 50.877a3.152 3.152 0 0 1 4.548.178 3.225 3.225 0 0 1-.461 4.4 58.036 58.036 0 0 0-7.3 7.516l25.8 20.067 4.28-5.5c3.056-3.933 2.9-10.251-.647-13.786a90.87 90.87 0 0 0-20.771-16.135c-4.293-2.576-10.452-1.158-13.51 2.772a1936.51 1936.51 0 0 0-4.267 5.488l4.259 3.321a62.9 62.9 0 0 1 8.069-8.321Z" fill="#e0e0e0"/><path d="M325.782 63.756a91.115 91.115 0 0 0-20.772-16.139c-4.293-2.576-10.452-1.158-13.51 2.772a1936.51 1936.51 0 0 0-4.267 5.488c-1.32 1.7-2.632 3.387-4.389 5.645-3.056 3.93-2.907 10.248.647 13.783A91.182 91.182 0 0 0 304.26 91.45c4.3 2.571 10.457 1.155 13.51-2.777 1.76-2.255 3.066-3.941 4.378-5.631l4.28-5.5c3.056-3.933 2.905-10.251-.646-13.786Zm-1 12.5-4.275 5.5-4.381 5.637a8.353 8.353 0 0 1-3.2 2.451 8.352 8.352 0 0 1-7.587-.2 88.448 88.448 0 0 1-20.371-15.825c-2.716-2.7-2.934-7.839-.466-11.011l4.383-5.645 4.267-5.5a8.409 8.409 0 0 1 3.209-2.457 8.377 8.377 0 0 1 7.587.2 88.528 88.528 0 0 1 20.368 15.834c2.711 2.695 2.931 7.842.464 11.014Z" fill="#26252e"/><path d="M315.825 65.886a9.745 9.745 0 0 0-13.606 1.651.79.79 0 0 0-.061.072 9.733 9.733 0 0 0 1.712 13.659 9.734 9.734 0 0 0 13.664-1.709c.016-.021.024-.05.042-.072a9.742 9.742 0 0 0-1.751-13.601Z" fill="#1c1c1f"/><path d="m270.074 70.5-12.405-.562-12.432-.554a10.7 10.7 0 0 0-11.168 10.211l-2.08 46.515a10.7 10.7 0 0 0 10.211 11.162l12.437.557 12.408.554a10.7 10.7 0 0 0 11.165-10.208l2.075-46.512A10.689 10.689 0 0 0 270.074 70.5Zm2.732 14.374a5.751 5.751 0 0 1-7.6-2.915 5.754 5.754 0 0 1 2.912-7.6 5.754 5.754 0 0 1 7.606 2.91 5.752 5.752 0 0 1-2.918 7.605Z" fill="#26252e"/><path d="m270.073 70.5-12.405-.562-12.432-.554a10.7 10.7 0 0 0-11.168 10.211l-2.08 46.515a10.7 10.7 0 0 0 10.211 11.162l12.437.557 12.408.554a10.7 10.7 0 0 0 11.165-10.208l2.075-46.512A10.689 10.689 0 0 0 270.073 70.5Zm8.125 11.067-2.075 46.512a8.583 8.583 0 0 1-5.107 7.487 8.532 8.532 0 0 1-3.88.731l-12.405-.559-12.442-.546a8.629 8.629 0 0 1-8.218-8.994l2.083-46.509a8.576 8.576 0 0 1 5.1-7.489 8.446 8.446 0 0 1 3.88-.726l12.445.554 12.395.557a8.507 8.507 0 0 1 5.971 2.785 8.553 8.553 0 0 1 2.253 6.197Z" fill="#1c1c1f"/><path d="M255.993 107.636a.03.03 0 0 1-.029 0 11.3 11.3 0 0 0-11.793 10.794 11.306 11.306 0 0 0 10.789 11.8h.016a11.309 11.309 0 0 0 11.79-10.786 11.321 11.321 0 0 0-10.773-11.808Z" fill="#e0e0e0"/><path d="M255.758 112.787h-.02a6.154 6.154 0 0 0-6.419 5.865 6.148 6.148 0 0 0 5.873 6.416h.016a6.145 6.145 0 0 0 6.395-5.862 6.144 6.144 0 0 0-5.845-6.419Z" fill="#ff4140"/><path d="M261.276 35.045a23.615 23.615 0 0 0-11.949 31.181 21.474 21.474 0 0 0 1.89 3.432 23.509 23.509 0 0 0 13.488 9.75 23.794 23.794 0 0 0 11.5.2 5.767 5.767 0 0 0-.5-2.343 4.756 4.756 0 0 0-.474-.861 20 20 0 0 1-9.432-.186 20.182 20.182 0 0 1-10.269-6.366 20.278 20.278 0 0 1-3.162-4.99 20.287 20.287 0 0 1 10.265-26.772 20.289 20.289 0 0 1 26.769 10.269 20.343 20.343 0 0 1 1.132 3.262c.315-.39.628-.8.962-1.23a9.3 9.3 0 0 1 1.648-1.643c-.2-.6-.437-1.174-.694-1.749a23.628 23.628 0 0 0-31.174-11.954Zm23.684 36.163a18.364 18.364 0 0 1-2.846 2.271 19.8 19.8 0 0 1-2.968 1.646 8.245 8.245 0 0 1-.583.244 9.827 9.827 0 0 1 1.357 3.042 4.9 4.9 0 0 0 .586-.233 21.759 21.759 0 0 0 3.747-2.109 20.055 20.055 0 0 0 2.87-2.327 23.608 23.608 0 0 0 7.359-18 48.327 48.327 0 0 0-3.625 4.288 20.131 20.131 0 0 1-5.897 11.178Z" fill="#ccc"/><g fill="#d4a47d"><path d="M319.484 303.572c-6.572 3.893-16.852 15.1-16.852 15.1l-18.2 10.82-26.011 4-19.053-3.205-31.094 38.8c16.661-3.806 81.295-12.32 81.295-12.32l28.886-25s14.729-15.886 16.062-23.121c.644-3.651-4.378-11.392-15.033-5.074Z"/><path d="M318.735 294.411c.652-3.662-4.394-11.385-15.031-5.056-6.567 3.885-16.844 15.1-16.844 15.1l-12.779 5.194s12.76-13.775 13.892-20.029c.57-3.154-3.808-9.856-13.025-4.389-5.679 3.384-14.591 13.1-14.591 13.1l-15.761 9.378-22.529 3.466-4.509-.606c-16.023 3.665-39.37-3.374-51.4-5.973-7.325-1.585-15.511-3.408-23.438-4.015l-18.159 53.6 98.966-.183c15.469-3.676 50.288-11.435 50.288-11.435l28.881-25.038s14.711-15.895 16.039-23.114Z"/><path d="M225.314 309.765c3.832 2.184 7.937 4.026 11.724 6.252l4.521-2.92s12.731-10.407 14.462-15.712c.89-2.669-2.1-9.026-10.757-5.385-5.356 2.242-48.089 19.966-48.089 19.966 2.427 1.239 26.631-3.046 28.139-2.201Z"/><path d="M248.616 307.118c-6.122-3.623-11.763-2.037-18.582-1.055-9.827 1.439-19.34 2.886-29.286 2.292-17.939-1.055-38.551-13.587-56.744-13.929a70.193 70.193 0 0 0-26.84 4.834l.05 19.764c12.747-5.231 27.437-5.048 40.92-3.837 16.749 1.489 32.469 8.136 49.424 8.282 7.561.072 15.206-1.3 22.643-2.475 7.1-1.1 13.611-.829 19.287-5.488 2.65-2.168 1.913-6.708-.872-8.388Z"/></g><path d="M274.439 323.191c2.682 5.756-.223 14.353-10.261 19.274-7.3 3.58-20.032 9.358-20.032 9.358v-.016l-35.872 17.278c-6.464-1.065-100.293-11.35-100.293-11.35l-27.58 11.658-21.249-57.025c1.362.2 58.114-21.826 80.955-18.037 24.209 4.018 74.606 36.911 74.606 36.911s20.949-6.97 27.211-9.75c21.064-9.363 29.478-4.807 32.515 1.699Z" fill="#ffc89f"/><path d="M269.728 324.807c-2.144-4.6-6.093-7.7-20.106-2.033.678.588 8.957 16.367 9.837 17.639.941-.453 1.831-.88 2.637-1.272 7.461-3.659 9.615-10.048 7.632-14.334Z" fill="#f0b990"/><path fill="#cc2221" d="m49.306 305.239 31.867-11.272 26.445 74.761-31.867 11.273z"/><path d="M378.386 234.447a19.22 19.22 0 0 1-.066 2 26.4 26.4 0 0 1-.92 5.067q-.421 1.431-.973 2.793a40.8 40.8 0 0 1-10.865 14.671c-.451.368-.7.562-.7.562l-265.771.647-.146-.04-7.206-2.022-20.424-5.711-7.243-17.721-.034-2.867-.246-22.637 9.32-5.192s39.46-6.2 40.054-6.456 38.445-20.255 48.19-24.609c31.494-14.06 71.137-7.974 71.137-7.974 8.239.17 25.526 4.407 32.763 8.358 14.841 8.1 29.562 26.08 37.3 27.042 9.167 1.155 68.487 10.812 74.656 25.2 1.023 2.394 1.145 5.495 1.174 8.889Z" fill="#ffca00"/><path d="M371.128 220.876a88.2 88.2 0 0 0-10.352-5.281c-2.268-1.065-4.492-2.194-6.827-3.14a69.7 69.7 0 0 0-8.103-2.64c-2.8-.753-5.661-1.232-8.5-1.836-2.928-.628-5.843-1.367-8.751-2.062-4.712-1.11-9.461-1.786-14.218-2.626-2.332-.411-4.646-.811-7-1.047a20.952 20.952 0 0 0-7.126.066.314.314 0 0 0 0 .62c1.386.252 2.759.3 4.147.435a59.51 59.51 0 0 1 4.532.66c2.886.506 5.79 1.039 8.69 1.5 2.912.48 5.788.925 8.666 1.558 2.918.649 5.825 1.359 8.74 2.011 2.862.636 5.767 1.126 8.613 1.844a62.35 62.35 0 0 1 8.26 2.862c4.142 1.717 8.107 3.906 12.111 5.915a42.834 42.834 0 0 1 7.118 4.293 14.305 14.305 0 0 1 2.706 2.693 24.71 24.71 0 0 1 1.715 2.926.977.977 0 0 0 1.844-.268c.511-3.702-3.533-6.705-6.265-8.483Zm-71.773-14.766c-10.8 2.189-157.122.252-161.3-2 0 0 26.1-.533 32.239-.981 33.023-2.443 122.048.2 122.048.2Z" fill="#f7d754"/><path d="m166.039 260.033-7.4.019c-.527-6.657-3.164-11-7.338-15.7-5.5-6.225-13.627-11.87-22.558-11.849-6.694.016-13.089 5.176-18.074 8.907-6.718 5.041-11.051 9.9-11.727 18.75l-7.219-2.022a37.4 37.4 0 0 1 37-33.01 37.37 37.37 0 0 1 37.316 34.905Zm188.742-.463-7.4.016c-.595-7.539-3.958-12.539-9.11-17.483-5.4-5.16-12.752-10.089-20.787-10.068-10.373.024-19.741 7.28-25.1 15.32-2.777 4.155-4.3 7.121-4.7 12.376l-7.4.016a37.386 37.386 0 0 1 37.178-35.087 37.37 37.37 0 0 1 37.319 34.91Z" fill="#fdab13"/><path d="m69.456 247.878 1.855 4.548 27.776 7.765 265.771-.647a41.663 41.663 0 0 0 10.245-12.41l-288.711.7-22.324-13.138Zm287.602-14.634a38.978 38.978 0 0 0 12.8-2.443 2.083 2.083 0 0 0 1.336-2.263c-.3-2.83-9.646-14.623-23.183-16.277l-16.417.021.7 2.388c.068.187 5.742 18.616 24.764 18.574Z" fill="#fdab13"/><path d="M369.236 229.038c1.277-.456-7.744-13.251-21.442-14.925l-13.7.032s7.332 24.807 35.142 14.893Z" fill="#e0e0e0"/><path d="M339.66 259.618c.066-.7.114-1.4.114-2.112a22.269 22.269 0 0 0-22.285-22.192 22.274 22.274 0 0 0-22.195 22.3c0 .708.04 1.407.109 2.107l-5.5.013c-.053-.7-.093-1.4-.093-2.107a27.765 27.765 0 0 1 27.667-27.8 27.755 27.755 0 0 1 27.77 27.668c0 .708-.019 1.407-.072 2.11Z" fill="#26252e"/><path d="M340.997 257.493a23.463 23.463 0 0 1-23.406 23.509l-.114-46.923a23.479 23.479 0 0 1 23.52 23.414Zm-23.521-23.414.114 46.923a23.458 23.458 0 0 1-23.514-23.4 23.474 23.474 0 0 1 23.4-23.523Z" fill="#1c1c1f"/><path d="M317.49 240.028a17.513 17.513 0 0 1 17.565 17.47 17.525 17.525 0 0 1-17.48 17.568 17.514 17.514 0 0 1-17.552-17.48 17.5 17.5 0 0 1 17.467-17.558Z" fill="#e0e0e0"/><path d="M320.585 254.578a52.124 52.124 0 0 0 5.658-10.145 12.819 12.819 0 0 1 7 12.055 52.374 52.374 0 0 0-11.623-.125Zm1.04 4.126a51.94 51.94 0 0 0 11.623-.183 12.848 12.848 0 0 1-6.941 12.11 51.821 51.821 0 0 0-5.706-10.131Zm-7.141 1.807a51.44 51.44 0 0 0-5.656 10.156 12.829 12.829 0 0 1-7-12.069 51.808 51.808 0 0 0 11.615.127Z" fill="#26252e"/><path d="M313.434 256.384a52.344 52.344 0 0 0-11.613.183 12.807 12.807 0 0 1 6.941-12.092 52.66 52.66 0 0 0 5.706 10.121Z" fill="#1c1c1f"/><path d="M324.47 243.404a52.82 52.82 0 0 0-5.912 10.009h-1.036l-.026-12.047a12.96 12.96 0 0 1 6.974 2.038Z" fill="#26252e"/><path d="M310.533 243.439a12.975 12.975 0 0 1 6.962-2.07l.026 12.047h-1.025a52.39 52.39 0 0 0-5.963-9.977Z" fill="#1c1c1f"/><path d="M318.577 261.669a52.628 52.628 0 0 0 5.963 9.975 12.917 12.917 0 0 1-6.967 2.072l-.029-12.045Z" fill="#26252e"/><path d="m317.543 261.671.029 12.045a12.868 12.868 0 0 1-6.971-2.041 51.789 51.789 0 0 0 5.912-10Z" fill="#1c1c1f"/><path d="M150.917 260.076a20.7 20.7 0 0 0 .1-2.109 22.259 22.259 0 0 0-22.269-22.195 22.274 22.274 0 0 0-22.2 22.3c0 .708.04 1.407.109 2.109l-5.515.011c-.048-.7-.072-1.4-.072-2.109a27.758 27.758 0 0 1 27.659-27.8 27.757 27.757 0 0 1 27.775 27.667c0 .708-.021 1.407-.072 2.109Z" fill="#26252e"/><path d="M152.258 257.951a23.463 23.463 0 0 1-23.406 23.509l-.114-46.923a23.48 23.48 0 0 1 23.52 23.414Zm-23.524-23.414.114 46.923a23.453 23.453 0 0 1-23.506-23.4 23.469 23.469 0 0 1 23.392-23.523Z" fill="#1c1c1f"/><path d="M128.746 240.486a17.52 17.52 0 0 1 17.568 17.469 17.529 17.529 0 0 1-17.483 17.568 17.531 17.531 0 0 1-17.565-17.483 17.519 17.519 0 0 1 17.48-17.554Z" fill="#e0e0e0"/><path d="M131.837 255.036a51.432 51.432 0 0 0 5.658-10.145 12.8 12.8 0 0 1 7 12.058 52.43 52.43 0 0 0-11.618-.13Zm1.052 4.126a51.9 51.9 0 0 0 11.618-.18 12.841 12.841 0 0 1-6.949 12.1 51.137 51.137 0 0 0-5.706-10.131Zm-7.148 1.802a52.581 52.581 0 0 0-5.658 10.16 12.86 12.86 0 0 1-7.01-12.071 52.054 52.054 0 0 0 11.623.127Zm-1.052-4.124a52.24 52.24 0 0 0-11.618.183 12.808 12.808 0 0 1 6.949-12.09 53.018 53.018 0 0 0 5.706 10.118Zm11.046-12.978a52.6 52.6 0 0 0-5.923 10.009h-1.034l-.029-12.047a13.014 13.014 0 0 1 6.986 2.038Zm-13.945.035a12.973 12.973 0 0 1 6.959-2.07l.029 12.047h-1.026a52.337 52.337 0 0 0-5.962-9.977Zm8.044 18.23a52.26 52.26 0 0 0 5.968 9.975 12.952 12.952 0 0 1-6.97 2.072l-.032-12.045Zm-1.034.003.032 12.045a12.935 12.935 0 0 1-6.972-2.038 52.638 52.638 0 0 0 5.915-10Z" fill="#26252e"/><path d="m174.479 203.664-.231-.037c-9.774-1.108-27.474-4.245-36.238-12.834l-.631-.615.162-.869c.172-.888.766-1.153 1.67-1.556.461-.2 1.137-.5 1.964-.856 1.675-.721 4.015-1.7 6.713-2.844 6.5-2.751 15.4-6.519 21.861-9.395 4.7-2.1 13.993-5.6 18.887-6.146 8.777-.943 19.677-1.518 29.151-1.542 11.271-.026 20.122.676 26.321 2.117 16.5 3.824 23.991 10.163 27.59 13.213.395.334.745.636 1.063.882 1.137.928 13.982 13.7 13.982 13.7l5.61 6.588-8.324-.069Z" fill="#fdab13"/><path d="M243.73 170.704c-14.287-3.31-41.111-2.019-54.921-.535-4.749.511-14.035 4.071-18.384 6-11.819 5.268-31.38 13.319-31.239 13.444 9.768 9.585 31.947 12 35.392 12.384l114.023-.281-3.036-3.666s-12.867-12.786-13.85-13.568c-3.281-2.653-10.092-9.631-27.985-13.778Z" fill="#1c1c1f"/><path d="m174.662 200.428-.051-.006c-13.386-1.532-24.426-4.844-31.1-9.328l-1.521-1.028 1.685-.721c1.577-.67 3.5-1.489 5.483-2.316 6.509-2.745 15.4-6.506 21.911-9.416 4.72-2.094 13.669-5.422 17.9-5.873 8.687-.933 19.457-1.511 28.823-1.532 10.868-.026 19.711.676 25.576 2.035 15.752 3.652 22.566 9.421 26.231 12.524.419.352.79.67 1.126.938 1.047.867 9 8.735 13.028 12.755l1.7 1.7Z" fill="#26252e"/><path d="M174.721 199.426c-13.309-1.511-24.153-4.778-30.654-9.161 1.577-.678 3.506-1.484 5.478-2.327 6.511-2.751 15.434-6.517 21.922-9.411 4.667-2.075 13.489-5.356 17.618-5.806 8.65-.933 19.378-1.5 28.711-1.521 10.789-.029 19.568.668 25.356 2.011 15.516 3.6 22.205 9.273 25.815 12.32.416.355.8.671 1.132.954.93.742 8.186 7.913 12.954 12.678Z" fill="#26252e"/><path fill="#1c1c1f" d="m204.881 169.368 3.608-.007.063 31.66-3.608.007z"/><path d="M377.401 241.517q-.421 1.431-.973 2.793a22.89 22.89 0 0 1-.694 1.566 36.424 36.424 0 0 1-4.174 6.758 43.743 43.743 0 0 1-6 6.347 8.835 8.835 0 0 1-6.893-8.594 8.8 8.8 0 0 1 2.562-6.244 8.81 8.81 0 0 1 6.238-2.6ZM75.845 218.864l.008 4.762a9.224 9.224 0 0 1-9.2 9.246h-.413a9.04 9.04 0 0 1-2.2-.257l-.252-22.635a8.713 8.713 0 0 1 2.393-.326h.416a9.23 9.23 0 0 1 9.248 9.21Z" fill="#fdab13"/><path d="m73.145 219.405.008 3.686a7.152 7.152 0 0 1-7.139 7.171h-.329a6.951 6.951 0 0 1-1.7-.2l-.191-17.538a6.659 6.659 0 0 1 1.847-.254h.331a7.152 7.152 0 0 1 7.173 7.135Zm302.589 26.476a36.424 36.424 0 0 1-4.174 6.758l-11.87-2.348 5.618-5.658Z" fill="#e0e0e0"/><path d="M349.843 219.625a3.764 3.764 0 0 1-3.758 3.776 3.766 3.766 0 0 1-3.776-3.758 3.77 3.77 0 0 1 3.761-3.784 3.763 3.763 0 0 1 3.773 3.766Z" fill="#fff"/><path d="m336.391 215.239 13.688-.034a26.515 26.515 0 0 1 7.163 1.958 27.132 27.132 0 0 0-9.448-3.05l-13.7.032s3.315 11.213 13.94 15.553c-8.821-4.879-11.643-14.459-11.643-14.459Z" fill="#ccc"/><path d="M72.455 217.481a3.77 3.77 0 0 1-3.763 3.782 3.774 3.774 0 0 1-3.779-3.763 3.771 3.771 0 0 1 3.76-3.784 3.774 3.774 0 0 1 3.782 3.765Z" fill="#fff"/><path d="M164.735 212.645a2.212 2.212 0 0 1-2.208 2.226l-8.467.021a2.213 2.213 0 0 1-2.218-2.213 2.214 2.214 0 0 1 2.21-2.213l8.467-.021a2.208 2.208 0 0 1 2.215 2.2Zm59.262-.14a2.217 2.217 0 0 1-2.21 2.223l-8.47.019a2.212 2.212 0 0 1-2.213-2.213 2.215 2.215 0 0 1 2.2-2.213l8.472-.021a2.22 2.22 0 0 1 2.218 2.2Z" fill="#fdab13"/><path d="M163.619 211.776a2.2 2.2 0 0 1-2.2 2.21l-8.475.021a2.209 2.209 0 0 1-2.226-2.2 2.221 2.221 0 0 1 2.215-2.221l8.472-.021a2.213 2.213 0 0 1 2.213 2.213Zm59.254-.147a2.2 2.2 0 0 1-2.208 2.213l-8.47.021a2.2 2.2 0 0 1-2.215-2.2 2.211 2.211 0 0 1 2.2-2.221l8.472-.021a2.212 2.212 0 0 1 2.218 2.21Z" fill="#e0e0e0"/><path d="m208.721 252.054-36.786-1.648-.09-.6a36.751 36.751 0 0 0-28.674-30.132l-.9-.183 9.379-21.516 1.373.6-8.647 19.844a38.248 38.248 0 0 1 28.854 30.55l33.948 1.518-1.336-47.389 1.495-.045Zm61.708-4.031-1.088-1.036 22.8-23.737-1.295-19.833 1.5-.09 1.332 20.485Zm29.411-33.433a3.217 3.217 0 0 1-3.215-3.209 3.22 3.22 0 0 1 3.2-3.225l7.171-.019a3.227 3.227 0 0 1 3.228 3.212 3.219 3.219 0 0 1-3.212 3.223Z" fill="#fdab13"/><path d="M309.285 211.352a2.273 2.273 0 0 1-2.274 2.279l-7.171.019a2.278 2.278 0 0 1-2.284-2.269 2.284 2.284 0 0 1 2.271-2.292l7.171-.019a2.288 2.288 0 0 1 2.287 2.282Z" fill="#ffca00"/><path d="M283.052 199.159c-4.768-4.765-12.024-11.936-12.954-12.678-.334-.284-.716-.6-1.132-.954-3.609-3.048-10.3-8.724-25.815-12.32-5.788-1.344-14.568-2.041-25.356-2.011-.6 0-1.2 0-1.815.016l40.702 28.018Zm-78.17-27.626c-5.51.27-10.974.676-15.8 1.187-3.49.384-10.327 2.785-15.182 4.773l31.051 21.374Z" fill="#242130" opacity=".2"/><path d="M118.056 216.601c-1.784-.628-3.906-.064-5.647.49a34.589 34.589 0 0 0-6.09 2.7 41.689 41.689 0 0 0-9.57 7.391 57.323 57.323 0 0 0-6.35 7.672 22.387 22.387 0 0 0-2.332 4.3 5.455 5.455 0 0 0-.466 3.652c.122.39.673.249.737-.1a14.648 14.648 0 0 1 .959-3.522 23.264 23.264 0 0 1 2.417-3.978 52.165 52.165 0 0 1 6.18-6.911 43.4 43.4 0 0 1 8.9-6.6 35.952 35.952 0 0 1 5.536-2.449c1.847-.636 4.028-.893 5.743-1.887a.415.415 0 0 0-.017-.758Zm234.699 24.495a19.9 19.9 0 0 0-2.327-3.89 33.417 33.417 0 0 0-6.964-6.689 50.758 50.758 0 0 0-8.6-4.966c-2.552-1.193-5.327-2.48-8.149-2.759a.188.188 0 0 0-.09.36c2.388 1.222 4.932 2.112 7.328 3.321a59.387 59.387 0 0 1 8.117 5.035 33.293 33.293 0 0 1 6.768 6.344 18.9 18.9 0 0 1 2.194 3.5c.57 1.2.753 2.626 1.593 3.657a.449.449 0 0 0 .761-.111c.458-1.279-.119-2.615-.631-3.802Z" fill="#f7d754"/></svg>