<svg width="747" height="243" viewBox="0 0 747 243" fill="none" xmlns="http://www.w3.org/2000/svg">
<path d="M456.803 223.632C616.896 223.632 746.677 218.65 746.677 212.504C746.677 206.357 616.896 201.375 456.803 201.375C296.71 201.375 166.929 206.357 166.929 212.504C166.929 218.65 296.71 223.632 456.803 223.632Z" fill="#CFCFE5"/>
<path d="M432 122.036C432 223.531 379.844 214.813 315.5 214.813C251.156 214.813 199 219.881 199 122.036C199 51.8537 251.156 12 315.5 12C379.844 12 432 51.8537 432 122.036Z" fill="#1A272E"/>
<path opacity="0.28" d="M322.253 37.6561C322.253 37.6561 225.262 28.7739 217.736 146.722C217.736 146.722 210.153 216.992 315.304 214.842C315.304 214.842 405.145 218.279 409.551 159.96C413.636 105.954 409.199 43.3799 322.253 37.6561Z" fill="#8D8DB1"/>
<path d="M375.488 182.96C408.728 149.72 408.728 95.8275 375.488 62.5874C342.247 29.3473 288.355 29.3473 255.115 62.5874C221.874 95.8275 221.874 149.72 255.115 182.96C288.355 216.201 342.247 216.201 375.488 182.96Z" fill="#8D8DB1"/>
<path d="M370.733 178.206C401.347 147.592 401.347 97.9561 370.733 67.3417C340.119 36.7273 290.483 36.7273 259.869 67.3417C229.254 97.9561 229.254 147.592 259.869 178.206C290.483 208.821 340.119 208.821 370.733 178.206Z" fill="#BDBDD8"/>
<path d="M315.208 55.4202H329.209C329.689 55.4207 330.163 55.5381 330.588 55.7624C331.013 55.9866 331.377 56.3109 331.648 56.7073C331.92 57.1036 332.091 57.5601 332.147 58.0374C332.202 58.5147 332.141 58.9983 331.968 59.4466L324.376 79.0749L317.971 95.5913C317.755 96.1484 317.376 96.6273 316.883 96.965C316.39 97.3027 315.807 97.4834 315.21 97.4834C314.612 97.4834 314.029 97.3027 313.536 96.965C313.043 96.6273 312.664 96.1484 312.448 95.5913L306.062 79.0749L298.47 59.4466C298.296 58.9983 298.234 58.5144 298.29 58.0368C298.345 57.5591 298.516 57.1022 298.788 56.7056C299.06 56.3089 299.424 55.9846 299.849 55.7606C300.275 55.5366 300.749 55.4197 301.229 55.4202H315.208Z" fill="#1A272E"/>
<path d="M315.208 189.536H301.229C300.748 189.536 300.275 189.418 299.849 189.194C299.424 188.969 299.06 188.645 298.788 188.248C298.516 187.851 298.345 187.394 298.29 186.916C298.235 186.438 298.296 185.954 298.47 185.506L306.062 165.877L312.448 149.361C312.664 148.804 313.043 148.325 313.536 147.987C314.029 147.649 314.612 147.469 315.209 147.469C315.807 147.469 316.39 147.649 316.883 147.987C317.376 148.325 317.755 148.804 317.971 149.361L324.357 165.877L331.949 185.506C332.122 185.954 332.184 186.438 332.129 186.916C332.074 187.394 331.903 187.851 331.631 188.248C331.359 188.645 330.995 188.969 330.57 189.194C330.144 189.418 329.67 189.536 329.19 189.536H315.208Z" fill="#1A272E"/>
<path d="M362.625 75.0603L372.511 84.9461C372.85 85.2862 373.102 85.7037 373.244 86.1626C373.386 86.6216 373.414 87.1082 373.326 87.5804C373.237 88.0527 373.036 88.4964 372.738 88.8733C372.44 89.2502 372.055 89.5489 371.616 89.7437L352.367 98.2693L336.184 105.419C335.638 105.66 335.031 105.73 334.444 105.62C333.857 105.51 333.317 105.225 332.895 104.803C332.473 104.38 332.188 103.84 332.079 103.253C331.969 102.666 332.04 102.059 332.282 101.513L339.447 85.3181L347.973 66.0696C348.168 65.6305 348.466 65.2454 348.843 64.9475C349.22 64.6496 349.664 64.4479 350.136 64.3598C350.608 64.2717 351.095 64.2998 351.554 64.4417C352.013 64.5837 352.43 64.8351 352.77 65.1745L362.625 75.0603Z" fill="#1A272E"/>
<path d="M267.793 169.892L257.907 160.01C257.567 159.67 257.315 159.252 257.173 158.793C257.03 158.334 257.002 157.847 257.09 157.374C257.178 156.901 257.38 156.457 257.679 156.079C257.977 155.702 258.363 155.403 258.803 155.209L278.051 146.683L294.246 139.518C294.792 139.277 295.399 139.207 295.986 139.317C296.573 139.427 297.113 139.712 297.535 140.134C297.957 140.557 298.242 141.097 298.351 141.684C298.46 142.271 298.39 142.878 298.148 143.424L290.987 159.619L282.461 178.867C282.267 179.307 281.968 179.693 281.59 179.991C281.213 180.29 280.769 180.492 280.296 180.58C279.823 180.668 279.336 180.64 278.877 180.497C278.417 180.355 278 180.103 277.66 179.763L267.793 169.892Z" fill="#1A272E"/>
<path d="M382.265 122.478V136.456C382.266 136.937 382.149 137.411 381.925 137.836C381.701 138.262 381.377 138.626 380.98 138.898C380.583 139.17 380.126 139.341 379.649 139.396C379.171 139.451 378.687 139.389 378.239 139.215L358.611 131.624L342.094 125.237C341.537 125.022 341.058 124.642 340.721 124.15C340.383 123.657 340.202 123.073 340.202 122.476C340.202 121.879 340.383 121.295 340.721 120.802C341.058 120.31 341.537 119.931 342.094 119.715L358.611 113.328L378.239 105.737C378.687 105.564 379.171 105.503 379.648 105.558C380.125 105.614 380.582 105.785 380.978 106.057C381.375 106.328 381.699 106.692 381.923 107.117C382.147 107.542 382.265 108.015 382.265 108.496V122.478Z" fill="#1A272E"/>
<path d="M248.149 122.478V108.496C248.15 108.015 248.267 107.542 248.492 107.117C248.716 106.692 249.04 106.328 249.437 106.057C249.833 105.785 250.289 105.614 250.767 105.558C251.244 105.503 251.728 105.564 252.176 105.737L271.804 113.328L288.324 119.715C288.882 119.931 289.36 120.31 289.698 120.802C290.036 121.295 290.217 121.879 290.217 122.476C290.217 123.073 290.036 123.657 289.698 124.15C289.36 124.642 288.882 125.022 288.324 125.237L271.804 131.624L252.176 139.215C251.728 139.388 251.244 139.45 250.767 139.394C250.289 139.338 249.833 139.167 249.437 138.895C249.04 138.624 248.716 138.26 248.492 137.835C248.267 137.41 248.15 136.937 248.149 136.456V122.478Z" fill="#1A272E"/>
<path d="M362.625 169.892L352.739 179.778C352.4 180.118 351.982 180.37 351.523 180.513C351.064 180.655 350.577 180.684 350.105 180.596C349.632 180.507 349.188 180.305 348.811 180.007C348.434 179.708 348.136 179.323 347.942 178.883L339.416 159.634L332.251 143.439C332.009 142.893 331.939 142.287 332.048 141.7C332.158 141.112 332.442 140.572 332.864 140.15C333.286 139.727 333.826 139.442 334.413 139.332C335 139.222 335.607 139.292 336.153 139.533L352.352 146.699L371.6 155.224C372.04 155.419 372.425 155.719 372.723 156.096C373.02 156.473 373.222 156.917 373.31 157.39C373.398 157.862 373.37 158.349 373.228 158.808C373.086 159.267 372.835 159.685 372.496 160.026L362.625 169.892Z" fill="#1A272E"/>
<path d="M267.793 75.0601L277.675 65.1743C278.016 64.835 278.434 64.5836 278.893 64.4417C279.352 64.2998 279.839 64.2717 280.311 64.3598C280.784 64.4479 281.228 64.6495 281.605 64.9474C281.982 65.2452 282.282 65.6303 282.477 66.0695L291.002 85.318L298.164 101.513C298.405 102.059 298.476 102.665 298.367 103.253C298.257 103.84 297.973 104.38 297.551 104.803C297.129 105.225 296.589 105.51 296.002 105.62C295.415 105.73 294.808 105.66 294.262 105.419L278.055 98.2537L258.807 89.7281C258.367 89.534 257.981 89.2356 257.683 88.8587C257.384 88.4818 257.182 88.0379 257.094 87.5653C257.006 87.0928 257.034 86.6058 257.177 86.1467C257.319 85.6876 257.571 85.2701 257.911 84.9305L267.793 75.0601Z" fill="#1A272E"/>
<path d="M331.651 126.617C333.785 117.576 328.186 108.518 319.146 106.384C310.105 104.251 301.047 109.849 298.913 118.89C296.78 127.93 302.378 136.989 311.419 139.122C320.459 141.256 329.517 135.657 331.651 126.617Z" fill="#1A272E"/>
<path d="M315.304 129.721C319.142 129.721 322.253 126.61 322.253 122.773C322.253 118.935 319.142 115.824 315.304 115.824C311.467 115.824 308.356 118.935 308.356 122.773C308.356 126.61 311.467 129.721 315.304 129.721Z" fill="white"/>
<path opacity="0.28" d="M250.928 52.7966C250.928 52.7966 201.631 90.9487 210.579 143.939C210.563 143.939 191.47 89.9024 250.928 52.7966Z" fill="#8D8DB1"/>
<path opacity="0.28" d="M403.49 72.3088C403.49 72.3088 421.766 102.447 420.483 155.034C420.483 155.034 429.462 99.8814 403.49 72.3088Z" fill="#8D8DB1"/>
<path d="M542.969 171.314V170.814H542.469H451.714V125.463L545.846 0.5H590.34V124.373V124.873H590.84H621.61V170.814H590.84H590.34V171.314V214.512H542.969V171.314ZM542.969 75.9167V74.3938L542.067 75.6203L506.414 124.061L505.828 124.858H506.817H542.469H542.969V124.358V75.9167Z" fill="#808285" stroke="black"/>
<path d="M91.7668 171.314V170.814H91.2668H6.89809L6.89819 125.463L101.045 0.5H139.126V124.373V124.873H139.626H170.396V170.814H139.626H139.126V171.314V214.512H91.7668V171.314ZM91.7668 75.9167V74.3938L90.8641 75.6203L55.2115 124.061L54.6254 124.858H55.6142H91.2668H91.7668V124.358V75.9167Z" fill="#808285" stroke="black"/>
<path d="M670.981 38.6365H665.536V93.1268H670.981V38.6365Z" fill="#BDBDD8"/>
<path d="M696.74 33.6838H638.987V38.6364H696.74V33.6838Z" fill="#1A272E"/>
<path d="M640.285 32.3042H639.03C638.617 32.3042 638.282 32.6391 638.282 33.0521V39.2642C638.282 39.6773 638.617 40.0121 639.03 40.0121H640.285C640.698 40.0121 641.033 39.6773 641.033 39.2642V33.0521C641.033 32.6391 640.698 32.3042 640.285 32.3042Z" fill="#1A272E"/>
<path d="M697.364 32.3042H696.108C695.695 32.3042 695.361 32.6391 695.361 33.0521V39.2642C695.361 39.6773 695.695 40.0121 696.108 40.0121H697.364C697.777 40.0121 698.112 39.6773 698.112 39.2642V33.0521C698.112 32.6391 697.777 32.3042 697.364 32.3042Z" fill="#1A272E"/>
<path d="M674.581 32.8157H661.743V39.5083H674.581V32.8157Z" fill="#BDBDD8"/>
<path opacity="0.33" d="M665.536 39.5085H670.981L665.536 42.539V39.5085Z" fill="#1A272E"/>
<path d="M664.696 85.2405H671.822C672.886 85.24 673.939 85.449 674.921 85.8556C675.904 86.2622 676.797 86.8584 677.549 87.6102C678.301 88.362 678.898 89.2546 679.305 90.237C679.712 91.2195 679.922 92.2725 679.922 93.3359V204.708H656.604V93.3359C656.604 91.1896 657.456 89.131 658.974 87.613C660.491 86.0949 662.549 85.2415 664.696 85.2405Z" fill="#EA4230"/>
<mask id="mask0_1072_10745" style="mask-type:luminance" maskUnits="userSpaceOnUse" x="656" y="85" width="24" height="120">
<path d="M664.696 85.2405H671.822C672.886 85.24 673.939 85.449 674.921 85.8556C675.904 86.2622 676.797 86.8584 677.549 87.6102C678.301 88.362 678.898 89.2546 679.305 90.237C679.712 91.2195 679.922 92.2725 679.922 93.3359V204.708H656.604V93.3359C656.604 91.1896 657.456 89.131 658.974 87.613C660.491 86.0949 662.549 85.2415 664.696 85.2405Z" fill="white"/>
</mask>
<g mask="url(#mask0_1072_10745)">
<path d="M684.204 81.7915H668.16V209.203H684.204V81.7915Z" fill="#C1271B"/>
</g>
<path d="M688.366 214.214H648.594C648.594 211.556 649.65 209.007 651.529 207.127C653.408 205.248 655.957 204.192 658.615 204.192H678.344C681.002 204.192 683.551 205.248 685.431 207.127C687.31 209.007 688.366 211.556 688.366 214.214Z" fill="#1A272E"/>
<path d="M690.497 213.636H646.346C645.944 213.636 645.618 213.963 645.618 214.365V215.706C645.618 216.108 645.944 216.434 646.346 216.434H690.497C690.9 216.434 691.226 216.108 691.226 215.706V214.365C691.226 213.963 690.9 213.636 690.497 213.636Z" fill="#1A272E"/>
<path d="M673.752 81.7915H662.766C661.734 81.7915 660.898 82.6278 660.898 83.6594V84.7057C660.898 85.7373 661.734 86.5736 662.766 86.5736H673.752C674.784 86.5736 675.62 85.7373 675.62 84.7057V83.6594C675.62 82.6278 674.784 81.7915 673.752 81.7915Z" fill="#1A272E"/>
<path opacity="0.32" d="M662.196 151.388C661.579 151.388 660.988 151.143 660.552 150.707C660.116 150.271 659.871 149.679 659.871 149.063V133.306C659.871 132.689 660.116 132.098 660.552 131.661C660.988 131.225 661.579 130.98 662.196 130.98C662.813 130.98 663.404 131.225 663.84 131.661C664.276 132.098 664.521 132.689 664.521 133.306V149.066C664.52 149.682 664.275 150.273 663.839 150.708C663.403 151.143 662.812 151.388 662.196 151.388Z" fill="white"/>
<path opacity="0.32" d="M662.196 158.96C661.579 158.96 660.988 158.715 660.552 158.279C660.116 157.843 659.871 157.252 659.871 156.635V155.027C659.871 154.41 660.116 153.818 660.552 153.382C660.988 152.946 661.579 152.701 662.196 152.701C662.813 152.701 663.404 152.946 663.84 153.382C664.276 153.818 664.521 154.41 664.521 155.027V156.635C664.521 157.252 664.276 157.843 663.84 158.279C663.404 158.715 662.813 158.96 662.196 158.96Z" fill="white"/>
<path d="M687.801 114.034C689.55 103.26 682.233 93.1077 671.459 91.3588C660.685 89.6098 650.533 96.9264 648.784 107.701C647.035 118.475 654.351 128.627 665.126 130.376C675.9 132.125 686.052 124.808 687.801 114.034Z" fill="#1A272E"/>
<path d="M674.89 126.859C683.732 123.196 687.932 113.059 684.269 104.216C680.606 95.3734 670.468 91.1743 661.626 94.837C652.783 98.4998 648.584 108.637 652.247 117.48C655.909 126.323 666.047 130.522 674.89 126.859Z" fill="white"/>
<mask id="mask1_1072_10745" style="mask-type:luminance" maskUnits="userSpaceOnUse" x="650" y="93" width="36" height="36">
<path d="M674.89 126.859C683.732 123.196 687.931 113.058 684.269 104.216C680.606 95.3731 670.468 91.174 661.626 94.8368C652.783 98.4995 648.584 108.637 652.246 117.48C655.909 126.322 666.047 130.522 674.89 126.859Z" fill="white"/>
</mask>
<g mask="url(#mask1_1072_10745)">
<path d="M678.899 95.8044C678.899 95.8044 679.534 119.118 657.949 126.128C657.949 126.128 673.45 136.061 685.583 122.749C697.717 109.438 678.899 95.8044 678.899 95.8044Z" fill="#BDBDD8"/>
</g>
<path d="M668.424 113.576C669.93 113.576 671.152 112.355 671.152 110.848C671.152 109.342 669.93 108.12 668.424 108.12C666.917 108.12 665.695 109.342 665.695 110.848C665.695 112.355 666.917 113.576 668.424 113.576Z" fill="#1A272E"/>
<path d="M668.912 95.8047H667.931V100.494H668.912V95.8047Z" fill="#1A272E"/>
<path d="M668.912 121.439H667.931V126.129H668.912V121.439Z" fill="#1A272E"/>
<path d="M683.583 111.457V110.477H678.894V111.457H683.583Z" fill="#1A272E"/>
<path d="M657.949 111.453V110.472H653.26V111.453H657.949Z" fill="#1A272E"/>
<path d="M679.489 100.594L678.796 99.9009L675.48 103.217L676.174 103.91L679.489 100.594Z" fill="#1A272E"/>
<path d="M661.365 118.716L660.671 118.022L657.356 121.338L658.049 122.031L661.365 118.716Z" fill="#1A272E"/>
<path d="M678.797 122.034L679.491 121.341L676.175 118.025L675.482 118.718L678.797 122.034Z" fill="#1A272E"/>
<path d="M660.669 103.906L661.362 103.213L658.047 99.8975L657.353 100.591L660.669 103.906Z" fill="#1A272E"/>
<path d="M674.748 104.64L668.834 109.29L668.424 110.965L670.102 110.554L674.748 104.64Z" fill="#F1BF46"/>
<path d="M319.067 193.636H311.538V201.166H319.067V193.636Z" fill="#1A272E"/>
<path d="M550.367 205.056C535.087 205.056 520.648 200.824 506.232 192.113C493.478 184.409 482.317 174.372 470.505 163.746C447.688 143.207 424.091 122.001 388.508 119.478C369.271 118.114 353.534 122.966 341.73 133.844C318.544 155.243 317.924 193.279 317.92 193.659L312.688 193.616C312.688 193.202 312.809 183.351 315.967 170.586C318.897 158.727 325.128 142.064 338.161 130.023C351.069 118.095 368.132 112.794 388.88 114.262C426.254 116.913 450.528 138.742 474.001 159.855C496.865 180.394 518.442 199.828 550.367 199.828C587.473 199.828 604.144 192.233 617.541 186.126C627.83 181.436 636.716 177.387 651.175 178.518L650.768 183.734C637.65 182.708 629.733 186.315 619.707 190.884C605.853 197.201 588.608 205.056 550.367 205.056Z" fill="#EA4230"/>
<path d="M656.511 175.585H645.431V186.664H656.511V175.585Z" fill="#1A272E"/>
</svg>
