<svg xmlns="http://www.w3.org/2000/svg" width="1024" height="1024" viewBox="0 0 1024 1024">
<g>
<path d="M 166.44,560.51 L 166.79,563.73 L 166.96,565.08 L 167.30,567.59 L 167.45,568.57 L 167.76,570.34 L 167.91,570.92 L 168.18,571.88 L 168.30,572.05 L 168.53,572.15 L 168.62,571.87 L 168.78,571.07 L 168.83,570.32 L 168.92,568.56 L 168.94,567.31 L 169.05,564.85 L 169.20,563.36 L 169.30,562.74 L 169.53,561.59 L 169.67,561.19 L 169.95,560.53 L 170.10,560.44 L 170.75,560.40 L 171.35,560.61 L 171.70,560.81 L 173.25,561.84 L 174.04,562.63 L 176.30,564.88 L 177.60,566.12 L 178.16,566.62 L 179.21,567.54 L 179.64,567.88 L 180.47,568.49 L 180.81,568.68 L 181.45,569.00 L 181.70,569.05 L 182.18,569.10 L 182.37,569.02 L 183.01,568.48 L 183.21,567.87 L 184.04,567.24 L 184.99,567.20 L 185.54,567.39 L 186.75,568.11 L 187.54,569.02 L 188.00,569.81 L 188.48,570.67 L 188.75,571.21 L 189.32,572.37 L 189.65,573.08 L 190.33,574.59 L 190.72,575.48 L 191.55,577.39 L 192.03,578.50 L 192.83,580.91 L 193.37,582.96 L 193.55,583.89 L 194.29,586.95 L 195.00,589.50 L 195.45,590.97 L 196.39,594.01 L 196.93,595.64 L 198.03,598.96 L 198.62,600.65 L 201.04,607.45 L 202.21,610.48 L 203.36,613.41 L 203.90,614.68 L 204.93,617.08 L 205.37,618.00 L 209.18,625.69 L 211.71,630.56 L 212.95,632.83 L 215.41,637.27 L 216.59,639.29 L 218.91,643.19 L 220.00,644.91 L 222.13,648.17 L 223.09,649.54 L 224.96,652.07 L 225.77,653.03 L 227.31,654.73 L 227.94,655.23 L 228.54,655.68 L 228.80,655.80 L 229.29,656.00 L 229.50,656.00 L 230.10,655.75 L 230.45,655.34 L 230.60,655.01 L 230.87,654.30 L 230.97,653.84 L 231.14,652.84 L 231.19,652.25 L 231.24,651.23 L 231.25,650.28 L 231.25,649.69 L 231.25,648.43 L 231.25,647.69 L 231.23,646.15 L 231.21,645.28 L 231.14,641.58 L 231.08,639.45 L 230.95,635.01 L 230.86,632.61 L 230.49,622.64 L 230.26,617.64 L 230.03,612.68 L 229.90,610.35 L 229.65,605.79 L 229.52,603.75 L 229.36,601.03 L 229.29,599.49 L 229.27,598.84 L 229.24,597.63 L 229.24,597.14 L 229.26,596.23 L 229.29,595.87 L 229.46,594.68 L 229.63,594.40 L 230.03,594.00 L 230.32,594.00 L 230.97,594.30 L 231.36,594.79 L 231.53,595.18 L 231.86,596.06 L 232.00,596.63 L 232.26,597.87 L 232.36,598.63 L 232.92,601.59 L 233.47,603.87 L 233.83,605.14 L 234.59,607.76 L 235.05,609.16 L 236.00,612.02 L 236.54,613.52 L 238.83,619.65 L 240.14,622.75 L 242.84,628.95 L 244.26,631.84 L 250.49,643.35 L 255.18,650.98 L 257.75,654.74 L 263.02,662.21 L 265.85,665.83 L 271.61,672.99 L 274.62,676.41 L 280.75,683.13 L 283.90,686.29 L 290.27,692.45 L 293.51,695.27 L 300.01,700.73 L 303.28,703.15 L 309.79,707.78 L 313.02,709.74 L 315.06,710.86 L 316.91,711.79 L 318.00,712.32 L 322.69,714.51 L 325.02,715.51 L 327.92,716.75 L 329.68,717.50 L 330.50,717.84 L 333.67,719.09 L 335.26,719.58 L 338.52,720.48 L 340.45,720.82 L 342.44,721.14 L 343.56,721.28 L 345.88,721.55 L 347.20,721.66 L 349.94,721.87 L 351.51,721.96 L 354.78,722.13 L 356.64,722.20 L 360.52,722.33 L 362.73,722.39 L 367.32,722.49 L 369.91,722.53 L 375.31,722.62 L 378.34,722.65 L 384.64,722.72 L 388.15,722.76 L 391.74,722.79 L 393.62,722.81 L 397.47,722.84 L 399.49,722.86 L 403.61,722.90 L 405.78,722.92 L 410.19,722.95 L 412.50,722.97 L 421.71,723.05 L 426.27,723.09 L 435.31,723.17 L 439.70,723.21 L 448.36,723.28 L 452.46,723.32 L 460.51,723.39 L 464.22,723.42 L 471.43,723.48 L 474.65,723.51 L 477.79,723.54 L 479.25,723.55 L 482.09,723.57 L 483.39,723.58 L 485.90,723.61 L 487.03,723.61 L 489.18,723.63 L 490.12,723.64 L 491.89,723.66 L 492.62,723.66 L 493.98,723.67 L 494.50,723.68 L 500.75,723.67 L 504.84,723.62 L 506.69,723.57 L 510.24,723.47 L 511.65,723.39 L 512.99,723.32 L 513.55,723.28 L 514.57,723.20 L 514.95,723.15 L 517.88,722.70 L 519.28,722.33 L 519.79,722.06 L 520.69,721.46 L 518.96,723.65 L 518.02,724.82 L 515.81,727.49 L 514.67,728.85 L 512.23,731.72 L 510.99,733.15 L 508.51,735.98 L 507.28,737.36 L 504.98,739.89 L 503.86,741.10 L 501.94,743.11 L 501.50,743.56 L 500.71,744.33 L 499.73,745.25 L 496.58,748.00 L 464.00,748.00 L 464.00,833.54 L 461.54,837.16 L 460.91,838.09 L 459.48,839.68 L 458.74,840.43 L 457.05,841.68 L 456.18,842.26 L 454.21,843.18 L 453.19,843.59 L 450.90,844.18 L 449.71,844.43 L 447.07,844.70 L 445.70,844.79 L 442.68,844.75 L 441.11,844.68 L 437.67,844.33 L 435.89,844.11 L 432.00,843.46 L 428.48,842.82 L 420.96,841.16 L 417.14,840.28 L 409.17,838.18 L 405.15,837.08 L 396.94,834.60 L 392.83,833.33 L 384.58,830.55 L 380.47,829.14 L 372.40,826.13 L 368.40,824.61 L 360.70,821.45 L 356.91,819.85 L 349.80,816.61 L 340.00,811.71 L 333.24,808.10 L 320.25,800.39 L 313.84,796.45 L 301.57,788.09 L 295.52,783.83 L 283.98,774.84 L 278.30,770.26 L 267.49,760.63 L 262.18,755.74 L 252.11,745.49 L 247.17,740.29 L 237.85,729.42 L 233.29,723.91 L 224.73,712.43 L 212.75,694.54 L 210.72,691.28 L 206.67,684.28 L 204.66,680.73 L 200.71,673.32 L 198.76,669.58 L 195.02,661.97 L 193.18,658.15 L 189.74,650.56 L 188.06,646.78 L 185.00,639.41 L 183.53,635.77 L 180.97,628.85 L 179.75,625.46 L 177.77,619.19 L 177.31,617.68 L 176.53,614.81 L 175.55,610.77 L 175.48,610.46 L 175.17,609.10 L 174.99,608.32 L 174.49,606.23 L 174.23,605.12 L 173.61,602.56 L 172.63,598.50 L 172.03,596.01 L 171.05,591.71 L 170.59,589.65 L 169.87,586.03 L 169.53,584.28 L 169.02,581.11 L 168.45,576.60 L 168.40,576.17 L 168.22,574.76 L 168.12,573.99 L 167.85,572.06 L 166.86,565.50 L 166.75,564.82 L 166.56,563.09 L 166.46,562.17 L 166.30,559.99 L 166.21,558.86 L 166.10,556.84 M 522.67,718.61 L 522.56,718.82 L 522.33,719.16 L 523.30,717.09 M 523.68,716.17 L 523.52,716.56 L 523.93,715.17 M 524.17,713.74 L 524.09,714.55 L 523.98,714.98 L 524.09,714.20 L 524.21,712.76 M 524.14,711.35 L 524.23,712.14 L 524.22,712.45 L 524.16,711.72 L 524.01,710.56 M 523.62,709.06 L 523.88,709.80 L 523.91,709.99 L 523.71,709.34 L 523.40,708.51 M 522.63,706.91 L 523.04,707.59 L 523.07,707.68 L 522.74,707.10 L 522.41,706.58 M 521.73,705.56 L 521.75,705.59 L 521.43,705.23 M 521.17,704.94 L 521.23,705.00 L 520.95,704.72 M 519.97,703.74 L 519.98,703.75 L 519.58,703.44 M 519.26,703.20 L 519.31,703.24 L 518.79,702.88 M 566.23,441.18 L 566.24,442.53 L 566.25,445.50 L 566.26,447.03 L 566.28,450.33 L 566.28,452.01 L 566.30,455.60 L 566.30,457.43 L 566.31,461.28 L 566.32,465.18 L 566.33,473.62 L 566.34,477.91 L 566.34,486.93 L 566.34,496.04 L 566.32,514.84 L 566.31,519.50 L 566.28,528.61 L 566.23,541.71 L 565.97,602.92 L 561.40,606.07 L 560.00,607.03 L 556.87,609.62 L 555.28,610.98 L 552.08,614.07 L 550.51,615.64 L 547.64,618.84 L 544.12,623.33 L 543.29,624.55 L 541.70,627.17 L 540.91,628.52 L 539.43,631.34 L 537.98,634.19 L 535.57,640.08 L 535.02,641.54 L 534.08,644.40 L 533.65,645.81 L 532.96,648.50 L 532.65,649.82 L 532.25,652.26 L 532.00,655.52 L 532.00,656.52 L 532.02,658.13 L 532.01,658.87 L 531.83,660.04 L 531.70,660.58 L 531.11,661.38 L 530.74,661.74 L 529.51,662.24 L 528.79,662.46 L 526.68,662.73 L 526.09,662.79 L 524.70,662.87 L 523.98,662.90 L 522.29,662.95 L 521.41,662.97 L 519.40,662.99 L 518.36,663.00 L 516.00,663.00 L 514.77,663.01 L 512.03,663.00 L 507.45,663.00 L 504.24,663.00 L 498.35,662.93 L 496.94,662.91 L 494.34,662.85 L 493.07,662.82 L 490.81,662.74 L 489.73,662.70 L 487.88,662.61 L 487.01,662.56 L 485.63,662.46 L 485.00,662.41 L 484.16,662.29 L 483.57,662.12 L 483.50,661.99 L 483.28,661.23 L 483.17,660.77 L 482.90,659.47 L 482.76,658.76 L 482.47,657.08 L 482.05,654.33 L 481.75,652.22 L 480.98,648.22 L 480.56,646.26 L 479.54,642.54 L 479.00,640.71 L 477.71,637.21 L 477.03,635.49 L 475.44,632.17 L 474.60,630.52 L 472.69,627.32 L 471.69,625.74 L 469.43,622.62 L 468.25,621.06 L 465.62,617.97 L 461.22,613.31 L 459.67,611.75 L 456.93,609.22 L 455.61,608.03 L 453.15,606.08 L 451.93,605.16 L 449.49,603.60 L 445.60,601.52 L 445.65,601.54 L 448.59,602.88 L 450.38,603.62 L 451.12,603.89 L 452.51,604.37 L 452.99,604.48 L 453.79,604.63 L 453.91,604.55 L 454.60,604.47 L 455.34,604.54 L 455.81,604.64 L 457.95,605.17 L 459.14,605.60 L 469.87,608.74 L 477.25,610.19 L 480.83,610.58 L 484.38,610.90 L 486.09,610.97 L 489.45,611.06 L 491.04,611.00 L 494.13,610.84 L 495.55,610.66 L 498.29,610.23 L 499.50,609.92 L 503.50,608.90 L 506.40,608.16 L 507.50,607.88 L 509.77,607.14 L 511.82,606.35 L 513.01,605.84 L 518.13,603.59 L 520.65,602.35 L 529.79,597.81 L 530.46,592.48 L 530.53,591.73 L 530.57,591.02 L 530.59,590.58 L 530.67,588.55 L 530.70,587.19 L 530.76,584.26 L 530.79,582.51 L 530.84,578.82 L 530.86,576.72 L 530.90,572.39 L 530.91,570.02 L 530.93,565.17 L 530.93,562.60 L 530.93,557.36 L 530.93,554.64 L 530.91,549.13 L 530.90,546.33 L 530.67,505.50 L 434.87,505.70 L 426.35,505.72 L 420.94,505.73 L 418.36,505.73 L 413.28,505.74 L 410.86,505.75 L 406.11,505.76 L 403.85,505.77 L 399.40,505.78 L 397.30,505.79 L 393.16,505.80 L 391.20,505.81 L 387.34,505.82 L 385.52,505.83 L 381.95,505.84 L 380.26,505.85 L 373.78,505.88 L 370.91,505.90 L 365.41,505.94 L 363.00,505.97 L 358.39,506.02 L 356.38,506.05 L 352.57,506.11 L 350.93,506.15 L 347.81,506.22 L 346.49,506.27 L 343.98,506.36 L 342.92,506.41 L 340.93,506.52 L 340.10,506.58 L 338.53,506.71 L 337.87,506.78 L 335.54,507.10 L 334.65,507.29 L 332.97,507.71 L 332.99,507.71 L 334.67,507.29 L 335.56,507.09 L 337.89,506.78 L 338.54,506.70 L 340.11,506.57 L 340.94,506.51 L 342.93,506.40 L 343.98,506.35 L 346.48,506.26 L 347.81,506.21 L 350.92,506.14 L 352.56,506.10 L 356.37,506.04 L 358.37,506.01 L 362.97,505.96 L 365.38,505.93 L 370.88,505.89 L 373.75,505.87 L 380.22,505.84 L 381.91,505.83 L 385.48,505.82 L 387.30,505.81 L 391.15,505.80 L 393.11,505.79 L 397.24,505.78 L 399.35,505.77 L 403.79,505.76 L 406.05,505.76 L 410.80,505.74 L 413.22,505.74 L 418.29,505.73 L 420.87,505.72 L 426.29,505.71 L 434.80,505.69 L 530.50,505.50 L 530.50,443.50 L 511.00,443.21 L 508.22,443.17 L 502.77,443.18 L 500.10,443.20 L 495.23,443.32 L 494.07,443.35 L 491.95,443.44 L 490.92,443.49 L 489.10,443.61 L 488.23,443.67 L 486.77,443.80 L 485.05,444.02 L 483.00,444.38 L 479.11,445.43 L 477.20,446.01 L 473.63,447.53 L 471.88,448.34 L 468.63,450.31 L 467.05,451.34 L 464.13,453.75 L 462.71,455.01 L 460.13,457.85 L 458.88,459.33 L 456.65,462.60 L 455.58,464.29 L 453.70,467.98 L 451.31,473.98 L 449.11,480.50 L 431.70,480.77 L 430.01,480.80 L 427.05,480.83 L 425.64,480.84 L 423.22,480.84 L 422.07,480.84 L 420.12,480.80 L 419.20,480.78 L 417.69,480.71 L 416.98,480.67 L 415.85,480.56 L 415.33,480.50 L 414.53,480.35 L 414.17,480.26 L 413.67,480.07 L 413.18,479.72 L 412.92,479.40 L 412.68,478.15 L 412.61,477.44 L 412.72,475.50 L 412.82,474.46 L 413.24,471.99 L 413.48,470.70 L 414.18,467.84 L 414.55,466.38 L 415.47,463.30 L 415.96,461.74 L 417.07,458.57 L 417.65,456.99 L 418.92,453.90 L 420.95,449.50 L 422.07,447.28 L 424.44,443.10 L 425.66,441.05 L 428.24,437.22 L 429.55,435.34 L 432.35,431.82 L 433.77,430.10 L 436.80,426.90 L 438.35,425.33 L 441.62,422.42 L 443.29,421.00 L 446.83,418.36 L 448.63,417.08 L 452.45,414.70 L 458.50,411.42 L 460.64,410.37 L 464.34,408.62 L 466.13,407.80 L 469.47,406.48 L 471.15,405.87 L 474.60,404.91 L 476.39,404.47 L 480.43,403.82 L 481.50,403.67 L 483.82,403.42 L 485.02,403.30 L 487.65,403.10 L 489.01,403.01 L 492.01,402.85 L 493.55,402.78 L 496.97,402.66 L 498.74,402.61 L 502.64,402.52 L 504.66,402.48 L 509.10,402.41 L 511.39,402.38 L 516.43,402.32 L 524.73,402.24 L 565.95,401.86 M 404.72,594.54 L 401.37,594.97 L 394.85,596.58 L 391.62,597.51 L 385.39,600.11 L 382.33,601.53 L 376.49,605.10 L 375.06,606.05 L 372.28,608.13 L 368.27,611.53 L 372.29,608.13 L 375.06,606.04 L 376.49,605.09 L 382.33,601.52 L 385.40,600.10 L 391.63,597.51 L 394.86,596.58 L 401.38,594.97 L 404.73,594.53 L 409.62,594.09 M 412.93,593.95 L 411.46,593.92 L 411.46,593.92 M 621.75,427.26 L 623.33,427.29 L 626.25,427.34 L 627.66,427.37 L 630.26,427.41 L 631.52,427.44 L 633.82,427.49 L 634.94,427.52 L 636.98,427.57 L 638.95,427.63 L 642.20,427.76 L 643.73,427.83 L 646.23,428.00 L 647.41,428.09 L 649.38,428.32 L 650.31,428.44 L 651.94,428.74 L 656.50,429.97 L 659.94,431.09 L 666.43,433.86 L 669.60,435.34 L 675.49,438.81 L 678.36,440.62 L 683.62,444.73 L 686.17,446.85 L 690.74,451.53 L 692.93,453.94 L 696.76,459.15 L 698.58,461.81 L 701.63,467.49 L 703.04,470.38 L 705.25,476.46 L 707.56,486.00 L 707.77,487.31 L 708.44,490.62 L 708.80,492.36 L 709.68,496.19 L 710.13,498.12 L 711.11,501.99 L 712.57,507.34 L 713.04,508.97 L 713.90,511.97 L 714.31,513.41 L 714.99,515.82 L 715.30,516.93 L 715.73,518.50 L 715.82,518.82 L 715.93,519.27 L 716.00,519.59 L 716.00,519.61 L 715.68,519.63 L 715.47,519.65 L 714.75,519.67 L 714.35,519.69 L 713.25,519.71 L 712.65,519.73 L 711.19,519.75 L 710.41,519.76 L 708.61,519.79 L 707.67,519.80 L 705.55,519.82 L 704.45,519.83 L 702.03,519.85 L 700.78,519.86 L 698.08,519.88 L 695.32,519.90 L 689.04,519.93 L 685.80,519.94 L 678.69,519.97 L 675.04,519.98 L 667.25,519.99 L 655.00,520.00 L 594.00,520.00 L 594.00,426.81 M 312.42,519.23 L 312.42,519.22 L 313.49,518.31 M 167.87,491.24 L 167.46,494.58 L 166.70,501.33 L 166.40,504.76 L 165.90,510.88 L 165.91,510.73 L 166.03,507.89 L 166.10,506.52 L 166.25,504.01 L 166.33,502.80 L 166.50,500.68 L 166.80,498.00 L 167.47,493.12 L 168.51,486.91 M 332.14,507.96 L 332.14,507.96 L 332.59,507.83 M 626.00,507.00 L 653.64,507.00 L 656.43,507.00 L 657.78,507.00 L 660.25,506.99 L 661.44,506.99 L 663.59,506.98 L 664.63,506.97 L 666.49,506.96 L 668.28,506.94 L 671.07,506.88 L 672.34,506.84 L 674.23,506.74 L 675.08,506.68 L 676.22,506.52 L 676.71,506.44 L 677.27,506.21 L 677.49,506.09 L 677.63,505.80 L 677.66,505.64 L 677.54,505.25 L 677.45,505.01 L 677.13,503.84 L 676.96,503.16 L 676.52,501.30 L 676.29,500.31 L 675.78,497.99 L 675.01,494.27 L 674.46,491.55 L 673.07,486.76 L 672.33,484.46 L 670.53,480.50 L 669.59,478.62 L 667.36,475.44 L 663.53,471.51 L 661.44,469.82 L 657.19,467.18 L 655.04,465.97 L 650.46,464.23 L 649.28,463.85 L 646.82,463.24 L 645.57,462.96 L 642.94,462.55 L 641.60,462.37 L 638.77,462.15 L 634.25,462.01 L 626.00,462.00 M 191.44,413.40 L 190.04,416.31 L 187.28,422.24 L 185.97,425.33 L 183.39,431.58 L 182.17,434.81 L 179.79,441.33 L 178.84,444.21 L 178.94,443.90 L 180.28,439.79 L 183.22,431.91 L 184.72,428.02 L 187.97,420.58 L 189.64,416.93 L 193.20,409.97 L 193.86,408.82 M 254.29,290.16 L 256.64,290.83 L 257.78,291.26 L 259.79,292.66 L 260.74,293.44 L 262.22,295.41 L 262.88,296.46 L 263.66,298.87 L 263.95,300.11 L 263.85,302.80 L 263.76,303.48 L 263.38,304.88 L 262.51,306.99 L 262.09,307.78 L 260.80,309.49 L 258.78,311.44 L 257.99,311.99 L 255.85,312.65 L 254.72,312.90 L 252.24,312.97 L 251.00,312.93 L 248.65,312.42 L 247.53,312.10 L 245.77,311.03 L 245.02,310.45 L 243.81,309.12 L 243.24,308.44 L 242.40,306.97 L 242.02,306.22 L 241.54,304.64 L 241.34,303.85 L 241.23,302.22 L 241.22,301.41 L 241.48,299.78 L 241.66,298.97 L 242.29,297.39 L 242.65,296.61 L 243.65,295.13 L 245.57,293.08 L 246.16,292.56 L 247.38,291.73 L 248.00,291.36 L 249.26,290.82 L 250.52,290.34 L 253.04,290.14 M 301.36,536.16 L 302.09,534.20 L 303.92,530.52 L 304.89,528.71 L 307.15,525.35 L 308.34,523.71 L 311.03,520.69 L 312.06,519.61 L 311.03,520.69 L 308.34,523.71 L 307.15,525.35 L 304.89,528.72 L 303.92,530.52 L 302.09,534.21 L 301.36,536.16 L 300.00,540.14 L 299.51,542.23 L 300.00,540.14 Z" fill="rgba(11,148,132,1)"/>
<path d="M 791.90,364.00 L 794.55,364.42 L 795.83,364.71 L 798.16,365.73 L 799.29,366.31 L 801.39,367.97 L 804.35,371.22 L 804.56,371.49 L 805.13,372.38 L 805.44,372.89 L 806.20,374.23 L 806.61,374.95 L 807.55,376.67 L 808.03,377.58 L 809.11,379.63 L 809.66,380.69 L 810.86,383.02 L 811.46,384.21 L 812.74,386.75 L 814.04,389.34 L 816.79,394.94 L 818.17,397.77 L 820.91,403.52 L 822.27,406.37 L 824.80,411.83 L 826.02,414.48 L 828.12,419.21 L 828.61,420.33 L 829.47,422.35 L 830.56,425.00 L 831.99,428.62 L 834.61,435.97 L 835.89,439.66 L 838.20,447.15 L 839.32,450.90 L 841.33,458.51 L 842.29,462.33 L 843.98,470.03 L 844.79,473.90 L 846.17,481.69 L 846.82,485.60 L 847.89,493.47 L 848.38,497.40 L 849.14,505.32 L 849.47,509.29 L 849.91,517.24 L 850.09,521.22 L 850.21,529.19 L 850.23,533.18 L 850.04,541.16 L 849.90,545.14 L 849.39,553.10 L 849.09,557.08 L 848.26,565.01 L 847.80,568.97 L 846.65,576.86 L 846.04,580.79 L 844.57,588.61 L 843.80,592.51 L 842.01,600.25 L 838.96,611.75 L 837.65,616.30 L 834.72,625.30 L 833.21,629.79 L 829.87,638.66 L 828.15,643.07 L 824.41,651.79 L 822.49,656.13 L 818.37,664.68 L 816.26,668.93 L 811.76,677.31 L 809.47,681.47 L 804.60,689.65 L 802.12,693.71 L 796.90,701.69 L 794.25,705.65 L 788.68,713.40 L 785.85,717.24 L 779.95,724.76 L 776.96,728.48 L 770.73,735.75 L 767.58,739.34 L 761.04,746.34 L 757.73,749.81 L 750.89,756.53 L 747.43,759.85 L 740.29,766.28 L 736.69,769.46 L 729.27,775.58 L 725.53,778.60 L 717.83,784.40 L 706.00,792.72 L 702.02,795.39 L 693.69,800.54 L 689.47,803.07 L 680.76,807.90 L 676.38,810.27 L 667.44,814.73 L 662.95,816.91 L 653.92,820.93 L 649.40,822.88 L 640.41,826.41 L 635.93,828.11 L 627.11,831.09 L 622.74,832.50 L 614.25,834.87 L 602.01,837.66 L 600.74,837.90 L 598.40,838.43 L 597.28,838.69 L 595.39,839.22 L 594.53,839.47 L 593.31,839.92 L 592.46,840.47 L 592.41,840.61 L 592.28,841.42 L 592.21,841.90 L 592.04,843.24 L 591.95,843.97 L 591.75,845.68 L 591.47,848.47 L 591.39,849.26 L 591.24,850.61 L 591.16,851.25 L 591.00,852.34 L 590.82,853.37 L 590.30,854.93 L 589.99,855.67 L 589.07,856.98 L 587.01,859.22 L 586.17,860.07 L 584.84,861.24 L 584.21,861.75 L 583.02,862.38 L 582.41,862.64 L 580.97,862.89 L 578.13,863.00 L 577.09,863.00 L 575.45,862.89 L 574.69,862.80 L 573.44,862.47 L 572.84,862.27 L 571.75,861.63 L 571.20,861.27 L 570.04,860.25 L 569.96,860.18 L 569.69,859.81 L 569.53,859.60 L 569.12,858.96 L 568.89,858.62 L 568.34,857.73 L 568.05,857.26 L 567.39,856.14 L 566.69,854.96 L 564.96,851.99 L 564.06,850.40 L 561.97,846.71 L 560.89,844.79 L 558.51,840.53 L 557.29,838.35 L 554.70,833.66 L 552.07,828.89 L 546.50,818.66 L 543.72,813.52 L 538.29,803.40 L 536.97,800.93 L 534.46,796.21 L 533.23,793.89 L 530.97,789.58 L 529.87,787.49 L 527.93,783.73 L 527.01,781.93 L 525.46,778.86 L 524.74,777.43 L 523.67,775.20 L 523.44,774.70 L 523.07,773.89 L 522.68,772.95 L 522.57,772.66 L 522.52,771.99 L 522.55,771.62 L 522.89,770.63 L 523.13,770.08 L 524.03,768.55 L 524.30,768.12 L 524.97,767.12 L 525.33,766.60 L 526.19,765.39 L 526.65,764.76 L 527.73,763.30 L 528.30,762.54 L 529.62,760.82 L 530.31,759.92 L 531.88,757.90 L 532.70,756.84 L 534.55,754.49 L 535.51,753.27 L 537.66,750.56 L 538.77,749.16 L 541.24,746.07 L 542.51,744.47 L 545.32,740.97 L 549.93,735.21 L 578.15,700.02 L 572.10,693.77 L 571.04,692.68 L 569.13,690.51 L 568.21,689.43 L 566.58,687.27 L 565.01,685.11 L 562.67,680.73 L 561.62,678.51 L 560.25,673.88 L 559.20,666.47 L 559.10,664.73 L 559.17,661.36 L 559.24,659.69 L 559.61,656.46 L 559.84,654.87 L 560.51,651.81 L 560.89,650.30 L 561.85,647.41 L 562.37,645.98 L 563.61,643.28 L 564.27,641.95 L 565.77,639.45 L 566.56,638.22 L 568.31,635.92 L 569.22,634.80 L 571.22,632.73 L 572.25,631.72 L 574.47,629.89 L 575.61,629.00 L 578.04,627.41 L 579.28,626.65 L 581.92,625.32 L 583.26,624.68 L 586.09,623.63 L 587.52,623.13 L 590.52,622.36 L 592.04,622.01 L 595.21,621.54 L 596.81,621.34 L 600.12,621.17 L 605.25,621.28 L 607.11,621.41 L 610.72,622.02 L 612.50,622.38 L 615.93,623.45 L 617.62,624.04 L 620.85,625.54 L 622.43,626.34 L 625.42,628.26 L 626.88,629.27 L 629.60,631.57 L 630.92,632.77 L 633.34,635.45 L 634.50,636.83 L 636.59,639.85 L 639.31,644.76 L 639.68,645.55 L 640.30,646.91 L 640.59,647.57 L 641.07,648.75 L 641.51,649.90 L 642.02,652.14 L 642.13,652.73 L 642.28,654.03 L 642.34,654.71 L 642.42,656.28 L 642.45,657.11 L 642.49,659.05 L 642.50,662.52 L 642.50,663.82 L 642.49,666.01 L 642.48,667.04 L 642.42,668.78 L 642.39,669.61 L 642.28,671.01 L 642.22,671.69 L 642.03,672.88 L 641.82,674.03 L 641.07,676.17 L 640.85,676.73 L 640.30,677.94 L 639.29,680.02 L 638.28,682.06 L 636.25,685.54 L 635.22,687.19 L 633.04,690.03 L 631.92,691.38 L 629.47,693.74 L 625.34,696.90 L 620.66,700.00 L 659.24,700.00 L 663.05,700.00 L 664.91,700.00 L 668.30,699.99 L 669.95,699.98 L 672.97,699.97 L 674.43,699.96 L 677.09,699.94 L 678.38,699.93 L 680.72,699.90 L 681.85,699.89 L 683.90,699.85 L 685.89,699.80 L 689.12,699.68 L 690.64,699.61 L 693.12,699.43 L 694.29,699.33 L 696.28,699.08 L 701.59,698.01 L 704.40,697.30 L 709.86,695.42 L 712.56,694.41 L 717.75,691.95 L 720.31,690.66 L 725.19,687.66 L 727.59,686.09 L 732.13,682.58 L 734.35,680.76 L 738.49,676.77 L 740.51,674.72 L 744.22,670.29 L 746.02,668.02 L 749.26,663.18 L 753.54,655.50 L 754.46,653.61 L 755.98,650.38 L 756.68,648.81 L 757.81,645.82 L 758.33,644.30 L 759.13,641.01 L 759.31,640.15 L 759.62,638.26 L 759.77,637.29 L 760.02,635.15 L 760.14,634.04 L 760.33,631.57 L 760.42,630.29 L 760.57,627.43 L 760.63,625.94 L 760.73,622.61 L 760.78,620.89 L 760.85,617.03 L 760.88,615.03 L 760.92,610.58 L 760.94,608.27 L 760.96,603.16 L 760.97,600.51 L 760.98,594.67 L 760.98,585.00 L 760.98,581.04 L 760.96,573.77 L 760.95,570.23 L 760.91,563.81 L 760.89,560.71 L 760.83,555.17 L 760.80,552.51 L 760.71,547.86 L 760.67,545.65 L 760.56,541.91 L 760.50,540.16 L 760.37,537.35 L 760.31,536.07 L 760.16,534.21 L 759.91,532.50 L 759.83,532.23 L 759.47,531.25 L 759.25,530.70 L 758.63,529.24 L 758.29,528.45 L 757.45,526.55 L 757.00,525.56 L 755.96,523.31 L 755.42,522.15 L 754.23,519.61 L 753.61,518.31 L 752.29,515.56 L 747.99,506.84 L 746.83,504.51 L 744.86,500.51 L 743.92,498.61 L 742.34,495.34 L 741.60,493.79 L 740.38,491.13 L 739.81,489.86 L 738.89,487.67 L 738.46,486.62 L 737.79,484.78 L 737.47,483.89 L 736.99,482.25 L 736.00,477.51 L 735.72,475.64 L 734.97,471.97 L 734.56,470.16 L 733.56,466.60 L 733.03,464.84 L 731.78,461.39 L 731.12,459.68 L 729.62,456.33 L 728.84,454.66 L 727.08,451.40 L 726.17,449.79 L 724.16,446.62 L 723.12,445.04 L 720.84,441.95 L 717.14,437.41 L 716.22,436.36 L 714.42,434.24 L 713.54,433.19 L 711.94,431.25 L 711.18,430.31 L 709.96,428.77 L 708.76,427.14 L 708.21,426.31 L 707.50,424.07 L 707.22,422.90 L 707.05,420.40 L 707.03,419.17 L 707.40,416.96 L 707.53,416.45 L 707.88,415.58 L 708.57,414.57 L 709.00,414.14 L 709.47,413.46 L 709.42,413.00 L 709.18,413.00 L 709.02,412.83 L 708.99,412.71 L 709.23,412.31 L 709.41,412.08 L 710.06,411.45 L 710.44,411.10 L 711.49,410.25 L 712.07,409.79 L 713.53,408.72 L 714.31,408.15 L 716.16,406.85 L 717.13,406.18 L 719.38,404.66 L 720.55,403.88 L 723.18,402.15 L 724.54,401.26 L 727.56,399.32 L 729.11,398.32 L 732.51,396.17 L 734.25,395.07 L 738.03,392.71 L 739.96,391.50 L 744.11,388.94 L 746.23,387.63 L 750.74,384.86 L 753.05,383.45 L 757.93,380.49 L 760.41,378.98 L 765.66,375.81 L 773.93,370.85 L 775.19,370.09 L 777.36,368.81 L 778.39,368.21 L 780.14,367.22 L 780.98,366.75 L 782.41,366.02 L 783.09,365.67 L 784.29,365.15 L 785.44,364.67 L 787.38,364.22 L 790.43,364.00 M 502.01,810.46 L 505.33,811.36 L 506.08,811.68 L 507.41,812.52 L 508.04,812.98 L 509.12,814.06 L 509.63,814.63 L 510.45,815.90 L 510.82,816.56 L 511.36,817.97 L 511.59,818.69 L 511.83,820.19 L 511.91,820.94 L 511.84,822.48 L 511.76,823.24 L 511.36,824.76 L 510.36,826.96 L 509.98,827.62 L 509.03,828.78 L 508.54,829.34 L 507.41,830.31 L 506.25,831.22 L 503.58,832.36 L 502.89,832.58 L 501.50,832.84 L 500.81,832.94 L 499.42,832.93 L 498.73,832.89 L 497.39,832.61 L 496.74,832.42 L 495.50,831.84 L 494.56,831.32 L 493.06,830.08 L 492.38,829.43 L 491.36,827.87 L 490.91,827.05 L 490.36,825.14 L 490.02,821.83 L 490.02,820.86 L 490.13,819.34 L 490.21,818.64 L 490.57,817.47 L 490.79,816.91 L 491.48,815.86 L 493.00,814.16 L 493.95,813.21 L 495.89,811.85 L 496.86,811.26 L 498.88,810.62 L 499.90,810.39 M 314.59,446.67 L 317.09,448.05 L 318.98,449.11 L 320.01,449.70 L 322.40,451.05 L 322.03,451.32 L 321.75,451.66 L 321.39,453.01 L 321.15,456.04 L 321.14,457.68 L 320.66,460.38 L 320.51,461.00 L 320.09,462.08 L 319.31,463.41 L 319.18,463.57 L 318.61,464.31 L 318.27,464.74 L 317.30,465.97 L 316.78,466.64 L 315.47,468.29 L 314.78,469.17 L 313.18,471.19 L 312.35,472.24 L 310.52,474.57 L 309.58,475.76 L 307.55,478.33 L 301.00,486.61 L 299.46,488.57 L 296.59,492.21 L 295.20,493.98 L 292.63,497.29 L 291.38,498.91 L 289.08,501.92 L 287.97,503.39 L 285.93,506.12 L 284.93,507.45 L 283.13,509.94 L 282.26,511.16 L 280.67,513.43 L 279.14,515.66 L 276.67,519.58 L 275.52,521.47 L 273.70,524.90 L 272.86,526.58 L 271.56,529.74 L 270.96,531.32 L 270.04,534.45 L 268.93,539.35 L 268.90,539.52 L 268.84,540.08 L 268.81,540.40 L 268.75,541.23 L 268.69,542.14 L 268.57,544.72 L 268.52,546.12 L 268.41,549.60 L 268.36,551.44 L 268.27,555.69 L 268.23,557.89 L 268.16,562.77 L 268.13,565.28 L 268.07,570.66 L 268.05,573.40 L 268.02,579.15 L 268.00,588.05 L 268.00,591.05 L 268.01,596.56 L 268.01,599.24 L 268.03,604.15 L 268.04,606.53 L 268.08,610.87 L 268.10,612.98 L 268.15,616.81 L 268.18,618.66 L 268.27,622.03 L 268.31,623.66 L 268.42,626.62 L 268.48,628.06 L 268.63,630.65 L 268.71,631.91 L 268.90,634.19 L 269.09,636.41 L 269.62,640.11 L 269.91,641.88 L 270.65,644.98 L 271.05,646.49 L 272.03,649.38 L 273.83,653.92 L 274.82,656.27 L 277.25,660.86 L 278.54,663.13 L 281.52,667.50 L 283.08,669.66 L 286.56,673.78 L 288.36,675.81 L 292.28,679.62 L 294.29,681.48 L 298.59,684.92 L 300.79,686.59 L 305.41,689.61 L 307.75,691.06 L 312.64,693.61 L 320.19,696.83 L 321.11,697.16 L 322.67,697.71 L 323.43,697.97 L 324.93,698.38 L 325.71,698.57 L 327.46,698.86 L 328.39,698.99 L 330.71,699.20 L 331.97,699.29 L 335.17,699.42 L 336.04,699.45 L 338.00,699.49 L 339.02,699.52 L 341.31,699.56 L 342.50,699.58 L 345.15,699.61 L 346.53,699.62 L 349.60,699.65 L 351.18,699.67 L 354.69,699.69 L 360.50,699.73 L 362.45,699.75 L 366.01,699.77 L 367.74,699.78 L 370.87,699.80 L 372.38,699.81 L 375.11,699.82 L 376.42,699.82 L 378.76,699.83 L 379.89,699.83 L 381.88,699.82 L 382.83,699.81 L 384.49,699.79 L 385.28,699.78 L 386.63,699.75 L 387.27,699.74 L 388.34,699.69 L 389.35,699.64 L 390.62,699.50 L 391.15,699.42 L 391.62,699.22 L 391.78,699.10 L 391.65,698.82 L 391.00,698.29 L 390.66,698.06 L 389.67,697.27 L 389.15,696.84 L 387.91,695.76 L 384.00,692.03 L 382.97,690.99 L 381.11,688.77 L 380.21,687.65 L 378.62,685.29 L 377.86,684.10 L 376.54,681.63 L 375.92,680.38 L 374.87,677.82 L 374.38,676.53 L 373.60,673.89 L 373.24,672.56 L 372.73,669.86 L 372.51,668.51 L 372.26,665.78 L 372.17,664.42 L 372.20,661.68 L 372.24,660.31 L 372.53,657.58 L 372.71,656.21 L 373.27,653.51 L 373.58,652.17 L 374.40,649.52 L 374.84,648.20 L 375.92,645.62 L 376.50,644.35 L 377.85,641.86 L 378.56,640.63 L 380.17,638.26 L 381.01,637.09 L 382.88,634.86 L 385.98,631.68 L 387.05,630.69 L 389.08,628.98 L 390.09,628.17 L 392.06,626.78 L 393.05,626.13 L 395.05,625.03 L 396.06,624.52 L 398.16,623.69 L 399.22,623.31 L 401.49,622.72 L 402.65,622.45 L 405.17,622.07 L 406.46,621.91 L 409.30,621.72 L 414.00,621.61 L 415.67,621.61 L 418.68,621.72 L 420.14,621.79 L 422.80,622.07 L 424.10,622.24 L 426.48,622.71 L 427.64,622.98 L 429.80,623.68 L 430.87,624.06 L 432.90,625.00 L 433.91,625.51 L 435.87,626.73 L 436.85,627.38 L 438.83,628.90 L 441.87,631.54 L 443.13,632.70 L 445.37,635.16 L 446.45,636.41 L 448.36,639.02 L 449.27,640.35 L 450.83,643.10 L 451.57,644.49 L 452.80,647.34 L 453.37,648.78 L 454.26,651.72 L 454.66,653.19 L 455.21,656.18 L 455.45,657.68 L 455.66,660.70 L 455.73,662.21 L 455.62,665.23 L 455.52,666.74 L 455.08,669.73 L 454.81,671.22 L 454.04,674.16 L 453.61,675.63 L 452.51,678.49 L 451.92,679.91 L 450.50,682.68 L 449.74,684.04 L 448.00,686.67 L 447.08,687.97 L 445.01,690.45 L 443.94,691.66 L 441.54,693.96 L 437.60,697.16 L 433.70,700.00 L 473.60,700.00 L 475.85,700.00 L 479.99,700.00 L 482.00,700.01 L 485.67,700.01 L 487.46,700.02 L 490.71,700.03 L 492.28,700.04 L 495.13,700.05 L 496.50,700.06 L 498.98,700.09 L 500.18,700.10 L 502.32,700.14 L 503.35,700.16 L 505.18,700.20 L 506.06,700.23 L 507.61,700.29 L 509.09,700.35 L 511.35,700.50 L 512.39,700.59 L 513.92,700.81 L 514.61,700.93 L 515.66,701.22 L 516.93,701.75 L 517.81,702.20 L 519.34,703.26 L 520.06,703.81 L 521.28,705.06 L 521.85,705.70 L 522.74,707.10 L 523.15,707.82 L 523.71,709.34 L 523.95,710.11 L 524.16,711.72 L 524.23,712.53 L 524.09,714.20 L 523.97,715.03 L 523.47,716.72 L 522.30,719.24 L 521.88,719.95 L 521.12,720.98 L 520.73,721.44 L 519.79,722.06 L 519.28,722.33 L 517.88,722.70 L 514.95,723.15 L 514.57,723.20 L 513.55,723.28 L 512.99,723.32 L 511.65,723.39 L 510.24,723.47 L 506.69,723.57 L 504.84,723.62 L 500.75,723.67 L 494.50,723.68 L 493.98,723.67 L 492.62,723.66 L 491.89,723.66 L 490.12,723.64 L 489.18,723.63 L 487.03,723.61 L 485.90,723.61 L 483.39,723.58 L 482.09,723.57 L 479.25,723.55 L 477.79,723.54 L 474.65,723.51 L 471.43,723.48 L 464.22,723.42 L 460.51,723.39 L 452.46,723.32 L 448.36,723.28 L 439.70,723.21 L 435.31,723.17 L 426.27,723.09 L 421.71,723.05 L 412.50,722.97 L 410.19,722.95 L 405.78,722.92 L 403.61,722.90 L 399.49,722.86 L 397.47,722.84 L 393.62,722.81 L 391.74,722.79 L 388.15,722.76 L 384.64,722.72 L 378.34,722.65 L 375.31,722.62 L 369.91,722.53 L 367.32,722.49 L 362.73,722.39 L 360.52,722.33 L 356.64,722.20 L 354.78,722.13 L 351.51,721.96 L 349.94,721.87 L 347.20,721.66 L 345.88,721.55 L 343.56,721.28 L 342.44,721.14 L 340.45,720.82 L 338.52,720.48 L 335.26,719.58 L 333.67,719.09 L 330.50,717.84 L 329.68,717.50 L 327.92,716.75 L 325.02,715.51 L 322.69,714.51 L 318.00,712.32 L 316.91,711.79 L 315.06,710.86 L 313.02,709.74 L 309.79,707.78 L 303.28,703.15 L 300.01,700.73 L 293.51,695.27 L 290.27,692.45 L 283.90,686.29 L 280.75,683.13 L 274.62,676.41 L 271.61,672.99 L 265.85,665.83 L 263.02,662.21 L 257.75,654.74 L 255.18,650.98 L 250.49,643.35 L 244.26,631.84 L 242.84,628.95 L 240.14,622.75 L 238.83,619.65 L 236.54,613.52 L 236.00,612.02 L 235.05,609.16 L 234.59,607.76 L 233.83,605.14 L 233.47,603.87 L 232.92,601.59 L 232.36,598.63 L 232.26,597.87 L 232.00,596.63 L 231.86,596.06 L 231.53,595.18 L 231.36,594.79 L 230.97,594.30 L 230.32,594.00 L 230.03,594.00 L 229.63,594.40 L 229.55,594.53 L 229.70,594.00 L 229.84,594.00 L 230.04,593.65 L 230.18,593.09 L 230.25,592.66 L 230.38,591.70 L 230.45,591.09 L 230.59,589.77 L 230.65,588.99 L 230.78,587.37 L 230.84,586.45 L 230.96,584.55 L 231.01,583.52 L 231.21,579.16 L 231.28,576.75 L 231.60,569.26 L 231.90,564.53 L 232.08,562.41 L 232.47,558.37 L 232.68,556.73 L 232.90,555.15 L 233.01,554.48 L 233.24,553.21 L 233.35,552.71 L 235.07,546.44 L 236.54,542.16 L 237.45,539.92 L 239.41,535.37 L 240.60,532.96 L 243.12,528.02 L 244.62,525.36 L 247.77,519.92 L 249.61,516.96 L 251.49,513.96 L 252.50,512.39 L 254.57,509.21 L 255.68,507.55 L 257.95,504.18 L 259.15,502.42 L 261.62,498.84 L 262.94,496.96 L 265.62,493.16 L 267.04,491.16 L 269.94,487.12 L 271.48,485.00 L 272.94,482.99 L 274.08,481.40 L 274.71,480.52 L 277.44,476.72 L 278.96,474.59 L 282.08,470.22 L 283.67,467.99 L 286.82,463.56 L 288.28,461.50 L 292.60,455.45 L 295.31,451.67 L 296.49,450.05 L 297.64,448.48 L 298.15,447.78 L 299.12,446.45 L 299.53,445.90 L 300.31,444.86 L 300.60,444.47 L 301.13,443.78 L 301.30,443.58 L 303.68,440.66 M 598.92,649.07 L 596.51,649.62 L 595.33,649.97 L 593.17,651.08 L 592.14,651.70 L 590.40,653.37 L 588.44,656.49 L 587.92,657.74 L 587.35,660.19 L 587.14,661.40 L 587.16,663.74 L 587.23,664.89 L 587.79,667.04 L 588.14,668.09 L 589.19,669.98 L 589.77,670.89 L 591.28,672.45 L 592.08,673.18 L 593.99,674.35 L 594.99,674.87 L 597.25,675.56 L 601.00,675.99 L 602.35,675.99 L 605.14,675.46 L 606.49,675.11 L 608.70,674.04 L 609.47,673.57 L 610.81,672.42 L 611.45,671.81 L 612.51,670.41 L 613.01,669.69 L 613.79,668.12 L 614.14,667.31 L 614.62,665.62 L 614.81,664.76 L 614.97,663.00 L 615.01,662.12 L 614.84,660.35 L 614.72,659.47 L 614.21,657.75 L 613.04,655.30 L 612.36,654.18 L 610.58,652.39 L 609.63,651.58 L 607.45,650.39 L 606.32,649.87 L 603.89,649.26 L 602.67,649.03 L 600.17,649.01 M 410.64,649.32 L 409.46,649.61 L 407.27,650.62 L 406.21,651.18 L 404.35,652.70 L 403.47,653.51 L 402.05,655.47 L 401.40,656.50 L 400.54,658.84 L 400.01,662.72 L 400.01,663.16 L 400.18,664.17 L 400.30,664.69 L 400.68,665.81 L 401.10,666.96 L 402.38,669.33 L 403.08,670.49 L 404.68,672.51 L 407.11,674.60 L 408.01,675.10 L 410.38,675.67 L 411.62,675.89 L 414.35,675.92 L 415.72,675.87 L 418.36,675.37 L 419.62,675.05 L 421.70,674.04 L 422.76,673.40 L 424.47,671.79 L 425.26,670.94 L 426.45,669.02 L 426.97,668.03 L 427.63,665.90 L 427.89,664.82 L 428.02,662.60 L 428.02,661.49 L 427.62,659.30 L 427.35,658.22 L 426.42,656.16 L 425.89,655.17 L 424.44,653.37 L 421.66,651.10 L 420.47,650.36 L 418.01,649.47 L 416.77,649.11 L 414.27,648.91 L 413.04,648.89 M 231.25,648.43 L 231.25,649.69 L 231.25,650.28 L 231.24,651.23 L 231.19,652.25 L 231.14,652.84 L 230.97,653.84 L 230.87,654.30 L 230.60,655.01 L 230.45,655.34 L 230.10,655.75 L 229.50,656.00 L 229.29,656.00 L 228.80,655.80 L 228.54,655.68 L 227.94,655.23 L 227.79,655.12 L 228.26,655.45 L 228.79,655.79 L 229.02,655.87 L 229.46,655.97 L 229.65,655.92 L 230.01,655.75 L 230.16,655.57 L 230.45,655.13 L 230.57,654.81 L 230.79,654.08 L 230.87,653.60 L 231.02,652.57 L 231.08,651.94 L 231.17,650.59 L 231.20,649.79 L 231.24,648.11 L 231.25,647.69 M 225.60,652.76 L 226.34,653.60 L 227.69,655.03 L 227.31,654.73 L 225.77,653.03 L 224.96,652.07 L 223.93,650.67 M 212.36,631.76 L 211.71,630.56 L 210.99,629.18 M 229.65,605.79 L 229.90,610.35 L 230.03,612.68 L 230.26,617.64 L 230.49,622.64 L 230.72,628.70 L 230.16,615.78 L 229.92,610.97 L 229.81,608.92 L 229.71,606.93 L 229.66,606.07 L 229.56,604.42 M 209.18,625.69 L 205.37,618.00 L 210.14,627.54 M 339.21,528.02 L 344.64,528.51 L 347.97,529.30 L 349.47,529.91 L 352.38,531.26 L 353.65,532.14 L 356.09,534.03 L 357.12,535.15 L 359.06,537.53 L 359.83,538.88 L 361.22,541.70 L 361.71,543.27 L 362.53,546.49 L 362.71,548.24 L 362.91,551.83 L 362.77,553.75 L 362.27,557.46 L 361.72,559.79 L 361.34,560.87 L 360.50,562.98 L 359.98,563.96 L 358.86,565.86 L 358.20,566.73 L 356.80,568.41 L 355.99,569.17 L 354.31,570.64 L 353.37,571.29 L 351.41,572.54 L 350.33,573.09 L 348.09,574.11 L 346.87,574.55 L 343.74,575.50 L 342.23,575.73 L 339.24,576.02 L 337.77,575.91 L 334.83,575.52 L 333.36,575.07 L 330.40,574.00 L 328.88,573.21 L 323.78,569.75 L 320.95,566.98 L 319.83,565.43 L 317.78,562.21 L 317.06,560.49 L 315.82,556.98 L 315.51,555.17 L 315.11,551.52 L 315.23,549.70 L 315.68,546.08 L 316.24,544.32 L 317.59,540.87 L 318.61,539.27 L 320.87,536.15 L 322.35,534.78 L 326.25,531.64 L 328.83,530.08 L 330.17,529.54 L 332.90,528.62 L 334.39,528.37 L 337.47,528.02 M 331.47,456.24 L 333.81,457.60 L 338.44,460.29 L 340.50,461.50 L 343.83,463.46 L 345.88,464.65 L 346.82,465.20 L 350.36,467.26 L 351.85,468.10 L 354.63,469.67 L 355.78,470.30 L 357.93,471.44 L 358.81,471.88 L 360.26,472.57 L 359.20,472.16 L 358.88,472.00 L 357.98,471.53 L 357.49,471.27 L 356.29,470.61 L 355.65,470.26 L 354.20,469.45 L 353.45,469.02 L 351.79,468.09 L 350.09,467.12 L 346.29,464.94 L 344.36,463.82 L 340.39,461.51 L 338.42,460.36 L 334.67,458.15 L 332.86,457.08 L 331.21,456.09 M 376.55,466.41 L 376.04,467.56 L 374.58,469.58 L 374.26,469.85 L 374.74,469.25 L 375.79,467.78 L 376.21,466.98 L 376.84,465.61 M 377.41,464.05 L 377.06,465.01 L 377.21,464.48 L 377.55,463.02 M 377.73,460.35 L 377.67,461.31 L 377.67,460.04 M 587.00,337.96 L 586.76,338.30 L 586.37,338.65 L 586.07,338.89 L 585.41,339.40 L 584.99,339.70 L 584.08,340.34 L 583.55,340.70 L 581.22,342.25 L 579.81,343.14 L 576.87,344.98 L 579.81,343.13 L 581.22,342.24 L 583.55,340.68 L 584.08,340.31 L 584.99,339.66 L 585.41,339.35 L 586.07,338.84 L 586.37,338.60 L 586.76,338.23 L 587.00,337.88 M 333.95,328.35 L 336.48,329.92 L 337.87,330.79 L 342.18,333.49 L 345.28,335.43 L 346.91,336.46 L 351.88,339.58 L 350.13,338.48 L 347.63,336.92 L 342.25,333.55 L 333.57,328.12 L 332.78,327.63 M 780.69,309.99 L 781.47,310.11 L 782.98,310.64 L 783.72,310.95 L 785.09,311.87 L 785.76,312.37 L 786.96,313.66 L 788.51,316.01 L 788.91,316.79 L 789.44,318.35 L 789.66,319.13 L 789.85,320.67 L 789.90,321.44 L 789.76,322.93 L 789.64,323.67 L 789.18,325.08 L 788.90,325.78 L 788.13,327.08 L 787.70,327.71 L 786.63,328.86 L 786.06,329.42 L 784.70,330.39 L 782.36,331.62 L 781.43,332.01 L 779.97,332.51 L 779.29,332.72 L 778.11,332.86 L 777.54,332.89 L 776.38,332.69 L 775.78,332.55 L 774.39,332.02 L 773.44,331.64 L 771.79,330.38 L 771.02,329.67 L 769.78,327.88 L 769.21,326.94 L 768.47,324.77 L 768.00,321.27 L 768.00,320.33 L 768.13,318.86 L 768.23,318.17 L 768.63,317.00 L 768.88,316.43 L 769.67,315.31 L 771.40,313.40 L 772.10,312.70 L 773.59,311.62 L 774.35,311.13 L 775.92,310.47 L 776.71,310.19 L 778.31,309.93 L 779.11,309.85 M 467.94,172.35 L 460.47,173.54 L 456.79,174.24 L 449.45,175.70 L 445.84,176.53 L 438.66,178.27 L 435.15,179.23 L 428.16,181.24 L 424.76,182.34 L 418.01,184.60 L 414.74,185.83 L 412.78,186.60 L 414.71,185.84 L 417.99,184.61 L 424.73,182.35 L 428.13,181.25 L 435.11,179.24 L 438.62,178.27 L 445.80,176.54 L 449.41,175.71 L 456.74,174.24 L 460.43,173.55 L 467.90,172.36 L 471.64,171.80 L 471.66,171.79 M 586.85,337.49 L 586.75,337.29 L 586.41,336.72 L 586.21,336.40 L 585.69,335.59 L 585.41,335.16 L 584.72,334.13 L 584.00,333.06 L 582.10,330.33 L 581.08,328.88 L 578.68,325.50 L 577.42,323.75 L 574.61,319.87 L 573.16,317.88 L 570.04,313.62 L 559.98,300.14 L 553.46,291.50 L 475.15,290.98 L 469.46,298.74 L 469.07,299.27 L 467.91,300.91 L 467.27,301.82 L 465.67,304.12 L 464.83,305.34 L 462.86,308.21 L 461.84,309.71 L 459.57,313.03 L 458.41,314.74 L 455.92,318.43 L 454.65,320.30 L 452.00,324.24 L 443.79,336.50 L 441.05,340.62 L 435.74,348.45 L 434.46,350.34 L 432.01,353.90 L 430.81,355.63 L 428.59,358.81 L 427.51,360.34 L 425.59,363.05 L 424.67,364.33 L 423.11,366.47 L 422.37,367.46 L 421.23,368.94 L 420.07,370.32 L 419.29,371.13 L 417.66,372.41 L 416.85,372.99 L 415.16,373.84 L 414.30,374.21 L 412.53,374.62 L 411.64,374.77 L 409.79,374.75 L 408.85,374.68 L 406.91,374.22 L 405.93,373.94 L 403.89,373.04 L 402.86,372.54 L 400.72,371.21 L 397.38,368.72 L 397.03,368.43 L 395.81,367.55 L 395.46,367.30 L 394.59,366.71 L 394.13,366.39 L 393.03,365.66 L 392.45,365.27 L 391.09,364.38 L 390.38,363.91 L 388.73,362.85 L 387.87,362.29 L 386.66,361.52 L 387.54,362.06 L 388.38,362.58 L 389.99,363.57 L 390.67,363.98 L 391.94,364.75 L 392.43,365.05 L 393.31,365.57 L 393.59,365.72 L 394.03,365.96 L 394.07,365.96 L 394.40,365.74 L 394.71,365.37 L 394.89,365.10 L 395.68,363.82 L 396.07,362.99 L 396.84,361.65 L 397.75,360.17 L 398.40,359.15 L 399.82,356.95 L 400.70,355.60 L 402.57,352.74 L 403.66,351.09 L 405.93,347.65 L 407.20,345.74 L 409.83,341.78 L 411.27,339.64 L 414.21,335.24 L 415.78,332.89 L 418.99,328.12 L 420.68,325.61 L 424.11,320.53 L 425.89,317.90 L 429.49,312.58 L 431.33,309.86 L 438.84,298.81 L 442.67,293.20 L 450.35,281.97 L 454.12,276.47 L 461.60,265.61 L 465.14,260.50 L 468.00,256.36 L 469.74,253.84 L 470.53,252.69 L 472.06,250.47 L 472.75,249.47 L 474.08,247.53 L 474.67,246.65 L 475.81,244.97 L 476.32,244.22 L 477.28,242.78 L 477.70,242.14 L 479.22,239.79 L 479.77,238.90 L 480.72,237.30 L 481.02,236.71 L 481.50,235.68 L 481.60,235.32 L 481.71,234.70 L 481.66,234.49 L 481.49,234.12 L 481.34,233.98 L 480.29,233.29 L 479.16,232.71 L 478.42,232.38 L 476.82,231.69 L 475.90,231.31 L 473.96,230.55 L 472.91,230.16 L 468.50,228.57 L 466.24,227.84 L 461.77,226.46 L 459.83,225.96 L 456.06,225.11 L 453.06,224.51 L 451.45,224.23 L 448.20,223.67 L 446.61,223.43 L 443.48,222.98 L 442.09,222.82 L 433.97,222.28 L 428.37,222.31 L 425.51,222.51 L 419.75,223.03 L 416.85,223.47 L 411.04,224.46 L 408.15,225.12 L 402.38,226.56 L 399.54,227.44 L 393.91,229.31 L 391.18,230.39 L 385.79,232.65 L 383.22,233.93 L 378.16,236.58 L 375.79,238.03 L 367.72,243.67 L 362.33,248.07 L 359.68,250.55 L 354.39,255.69 L 351.83,258.48 L 346.77,264.19 L 344.36,267.22 L 339.63,273.38 L 337.43,276.57 L 333.15,283.02 L 331.22,286.30 L 327.50,292.90 L 325.89,296.20 L 322.86,302.80 L 321.63,306.05 L 320.03,310.21 L 319.22,312.43 L 319.00,313.34 L 318.68,315.05 L 318.76,315.81 L 319.10,317.26 L 319.57,317.97 L 320.71,319.40 L 321.64,320.19 L 322.64,321.00 L 323.23,321.44 L 324.49,322.33 L 325.23,322.83 L 325.74,323.17 L 323.64,321.83 L 322.07,320.82 L 319.11,318.90 L 317.67,317.96 L 315.02,316.22 L 313.75,315.37 L 311.49,313.86 L 310.42,313.14 L 308.64,311.90 L 307.81,311.32 L 306.58,310.42 L 305.42,309.49 L 304.56,308.68 L 303.18,306.97 L 302.54,306.09 L 301.60,304.21 L 301.19,303.25 L 300.70,301.15 L 300.51,300.07 L 300.47,297.72 L 300.50,296.50 L 300.91,293.83 L 301.17,292.45 L 302.03,289.43 L 302.52,287.86 L 303.84,284.43 L 306.32,278.76 L 307.85,275.49 L 311.25,269.12 L 313.00,265.96 L 316.82,259.85 L 318.77,256.82 L 322.97,250.99 L 325.11,248.12 L 329.65,242.63 L 331.96,239.92 L 336.82,234.80 L 339.29,232.28 L 344.43,227.56 L 347.03,225.26 L 352.42,220.99 L 360.75,215.13 L 362.06,214.28 L 364.49,212.71 L 365.67,211.94 L 367.87,210.53 L 370.01,209.16 L 373.67,206.82 L 375.41,205.71 L 378.42,203.83 L 379.86,202.94 L 382.40,201.40 L 383.63,200.66 L 385.88,199.36 L 386.98,198.73 L 389.12,197.56 L 390.19,196.98 L 392.41,195.82 L 395.45,194.27 L 388.21,198.09 L 385.76,199.46 L 384.62,200.12 L 382.41,201.42 L 381.42,202.03 L 379.54,203.20 L 378.75,203.71 L 377.29,204.70 L 376.75,205.10 L 375.80,205.84 L 375.55,206.10 L 375.21,206.55 L 375.30,206.64 L 376.21,206.51 L 377.49,206.17 L 378.39,205.89 L 380.35,205.27 L 381.52,204.87 L 383.95,204.04 L 385.26,203.56 L 390.66,201.71 L 394.08,200.64 L 395.75,200.19 L 402.32,198.58 L 405.72,198.05 L 409.16,197.56 L 410.97,197.37 L 414.66,197.04 L 416.64,196.92 L 420.71,196.71 L 422.93,196.66 L 427.49,196.57 L 430.00,196.56 L 437.21,196.62 L 441.64,196.75 L 443.71,196.86 L 447.77,197.13 L 449.70,197.33 L 453.52,197.76 L 455.38,198.04 L 462.77,199.36 L 466.62,200.34 L 470.53,201.38 L 472.59,201.98 L 476.79,203.26 L 479.05,204.00 L 491.02,208.43 L 498.77,211.82 L 502.54,213.75 L 510.01,217.77 L 513.64,220.01 L 520.85,224.65 L 524.37,227.21 L 531.34,232.50 L 534.74,235.39 L 541.49,241.34 L 544.80,244.56 L 551.36,251.19 L 554.57,254.76 L 560.95,262.08 L 564.09,266.00 L 566.29,268.79 L 568.00,270.98 L 568.95,272.22 L 570.92,274.78 L 571.99,276.18 L 574.17,279.04 L 575.32,280.56 L 580.06,286.83 L 582.54,290.12 L 587.51,296.76 L 589.93,300.01 L 594.69,306.43 L 596.84,309.35 L 598.94,312.20 L 599.90,313.52 L 601.77,316.08 L 602.60,317.22 L 604.17,319.40 L 604.84,320.33 L 606.07,322.07 L 606.54,322.74 L 607.37,323.96 L 607.62,324.34 L 608.00,324.96 L 608.00,325.02 L 607.80,325.34 L 607.48,325.65 L 607.24,325.85 L 606.05,326.77 L 605.20,327.36 L 603.37,328.61 L 602.30,329.30 L 600.08,330.71 L 598.92,331.42 L 596.58,332.84 L 595.45,333.50 L 593.25,334.77 L 592.29,335.28 L 590.50,336.23 L 589.84,336.53 L 589.23,336.80 L 589.00,336.88 L 588.60,337.00 L 588.49,337.00 L 587.44,337.28 L 587.00,337.70 L 587.00,337.81 Z" fill="rgba(27,67,72,1)"/>
<path d="M 730.98,587.24 L 730.97,590.27 L 730.95,596.10 L 730.94,598.97 L 730.89,604.39 L 730.87,607.05 L 730.80,611.97 L 730.76,614.36 L 730.68,618.68 L 730.63,620.76 L 730.53,624.37 L 730.47,626.08 L 730.36,628.89 L 730.30,630.18 L 730.17,632.08 L 729.96,633.79 L 729.64,635.17 L 728.77,637.89 L 728.29,639.24 L 727.12,641.85 L 726.50,643.15 L 725.07,645.63 L 724.32,646.85 L 722.65,649.16 L 721.79,650.29 L 719.92,652.38 L 718.96,653.40 L 716.91,655.25 L 715.87,656.14 L 713.67,657.70 L 710.23,659.67 L 708.90,660.33 L 706.71,661.22 L 705.60,661.61 L 703.03,662.10 L 702.30,662.20 L 700.60,662.37 L 699.68,662.44 L 697.49,662.56 L 696.32,662.61 L 693.50,662.70 L 688.41,662.84 L 686.19,662.89 L 682.10,662.92 L 680.14,662.92 L 676.85,662.86 L 676.09,662.84 L 674.79,662.78 L 674.18,662.75 L 673.21,662.67 L 672.77,662.63 L 672.16,662.53 L 671.91,662.48 L 671.73,662.36 L 671.65,662.25 L 671.47,661.63 L 671.37,661.28 L 671.15,660.29 L 670.50,656.50 L 670.16,654.02 L 669.20,649.25 L 668.67,646.90 L 667.35,642.40 L 666.64,640.18 L 664.95,635.94 L 664.06,633.86 L 662.00,629.88 L 660.93,627.93 L 658.50,624.21 L 657.25,622.38 L 654.45,618.91 L 653.00,617.21 L 649.84,614.00 L 644.66,609.45 L 643.13,608.23 L 640.04,606.02 L 638.49,604.94 L 635.33,603.02 L 633.74,602.10 L 630.48,600.46 L 628.83,599.67 L 625.45,598.30 L 623.74,597.65 L 620.20,596.55 L 618.41,596.03 L 614.69,595.17 L 612.81,594.77 L 608.89,594.16 L 602.73,593.50 L 593.96,592.82 L 594.23,569.16 L 594.50,545.50 L 611.55,545.44 L 610.37,545.47 L 608.23,545.53 L 607.26,545.57 L 605.41,545.63 L 604.61,545.67 L 603.09,545.74 L 602.46,545.78 L 601.29,545.86 L 600.84,545.90 L 600.05,545.99 L 599.81,546.03 L 599.43,546.12 L 599.40,546.17 L 599.47,547.17 L 600.03,548.11 L 600.54,548.69 L 601.70,549.94 L 602.49,550.66 L 604.21,552.16 L 605.25,553.00 L 607.46,554.71 L 608.72,555.64 L 611.36,557.52 L 612.81,558.50 L 615.82,560.50 L 617.44,561.53 L 620.75,563.59 L 622.50,564.63 L 629.65,568.94 L 634.11,571.69 L 636.18,573.02 L 640.25,575.63 L 642.14,576.89 L 645.84,579.39 L 647.56,580.61 L 650.91,583.02 L 652.47,584.20 L 655.50,586.55 L 656.91,587.71 L 659.66,590.02 L 660.93,591.17 L 663.41,593.47 L 664.56,594.63 L 668.92,599.26 L 670.80,601.66 L 674.37,606.52 L 675.93,609.11 L 678.91,614.40 L 680.26,617.28 L 682.85,623.21 L 684.08,626.48 L 684.81,628.35 L 685.14,629.05 L 685.80,630.33 L 686.11,630.76 L 686.74,631.51 L 687.06,631.71 L 687.71,632.00 L 688.06,632.00 L 689.37,631.75 L 690.67,631.36 L 691.47,631.08 L 693.17,630.46 L 694.11,630.09 L 696.02,629.33 L 697.00,628.92 L 700.90,627.22 L 702.46,626.45 L 703.93,625.70 L 704.48,625.38 L 705.44,624.79 L 705.67,624.58 L 705.95,624.00 L 706.15,623.29 L 706.26,622.78 L 706.48,621.66 L 706.60,620.96 L 706.83,619.48 L 706.95,618.61 L 707.20,616.80 L 707.32,615.79 L 707.57,613.68 L 707.70,612.54 L 708.19,607.71 L 708.42,605.00 L 709.99,589.00 L 710.56,583.98 L 710.82,581.84 L 711.08,579.78 L 711.20,578.89 L 711.44,577.19 L 711.54,576.50 L 712.26,571.84 L 712.79,568.35 L 713.06,566.56 L 713.61,562.97 L 713.87,561.29 L 714.36,558.05 L 714.57,556.70 L 715.10,552.82 L 715.37,550.48 L 715.45,549.50 L 715.58,547.71 L 715.58,547.09 L 715.55,546.08 L 715.47,545.95 L 715.06,545.82 L 714.47,545.73 L 714.03,545.69 L 713.04,545.62 L 712.41,545.58 L 711.06,545.51 L 710.26,545.47 L 708.57,545.41 L 707.61,545.38 L 705.60,545.32 L 704.50,545.29 L 699.79,545.19 L 697.08,545.15 L 694.85,545.12 L 731.00,544.99 M 260.22,346.07 L 263.77,346.09 L 270.54,346.14 L 273.85,346.16 L 279.97,346.23 L 282.94,346.27 L 288.22,346.36 L 289.48,346.39 L 291.80,346.44 L 292.93,346.47 L 294.97,346.53 L 295.96,346.56 L 297.69,346.62 L 298.52,346.65 L 299.92,346.72 L 300.57,346.75 L 301.61,346.83 L 302.74,346.94 L 304.30,347.17 L 307.31,347.84 L 308.79,348.21 L 311.61,349.17 L 313.00,349.68 L 315.64,350.92 L 316.94,351.57 L 319.37,353.07 L 320.57,353.86 L 322.79,355.62 L 323.87,356.53 L 325.87,358.55 L 326.83,359.59 L 328.59,361.85 L 330.94,365.50 L 331.44,366.39 L 332.78,368.86 L 333.49,370.20 L 335.22,373.48 L 336.12,375.21 L 338.16,379.16 L 339.22,381.21 L 341.51,385.70 L 342.69,388.00 L 345.17,392.91 L 346.43,395.40 L 349.04,400.58 L 351.67,405.80 L 357.01,416.51 L 358.33,419.17 L 360.91,424.39 L 362.19,426.97 L 364.63,431.93 L 365.83,434.37 L 368.06,438.94 L 369.15,441.17 L 371.11,445.23 L 372.05,447.19 L 373.68,450.60 L 374.44,452.21 L 375.66,454.83 L 375.94,455.44 L 376.41,456.47 L 376.63,456.96 L 376.97,457.75 L 377.13,458.12 L 377.34,458.65 L 377.50,459.15 L 377.67,460.04 L 377.67,461.84 L 377.61,462.73 L 377.21,464.48 L 376.96,465.35 L 376.21,466.98 L 375.79,467.78 L 374.74,469.25 L 374.18,469.95 L 372.88,471.18 L 372.20,471.76 L 370.70,472.68 L 369.93,473.09 L 368.28,473.65 L 365.70,474.00 L 364.83,474.00 L 362.93,473.60 L 362.39,473.44 L 361.13,472.95 L 360.46,472.67 L 358.81,471.88 L 357.93,471.44 L 355.78,470.30 L 354.63,469.67 L 351.85,468.10 L 350.36,467.26 L 346.82,465.20 L 345.88,464.65 L 343.83,463.46 L 340.50,461.50 L 338.44,460.29 L 333.81,457.60 L 331.47,456.24 L 330.90,455.91 L 331.05,455.94 L 331.59,455.94 L 331.75,455.80 L 332.00,455.43 L 332.00,455.11 L 331.59,454.37 L 330.97,453.89 L 330.55,453.69 L 329.64,453.32 L 329.15,453.20 L 328.14,453.02 L 327.67,453.03 L 327.37,453.16 L 327.34,453.35 L 327.41,453.49 L 327.91,454.13 L 328.27,454.40 L 326.70,453.50 L 324.35,452.16 L 320.01,449.70 L 318.98,449.11 L 317.09,448.05 L 314.59,446.67 L 303.68,440.66 L 301.30,443.58 L 301.13,443.78 L 300.60,444.47 L 300.31,444.86 L 299.53,445.90 L 299.12,446.45 L 298.15,447.78 L 297.64,448.48 L 296.49,450.05 L 295.31,451.67 L 292.60,455.45 L 288.28,461.50 L 286.82,463.56 L 283.67,467.99 L 282.08,470.22 L 278.96,474.59 L 277.44,476.72 L 274.71,480.52 L 274.08,481.40 L 272.94,482.99 L 271.48,485.00 L 269.94,487.12 L 267.04,491.16 L 265.62,493.16 L 262.94,496.96 L 261.62,498.84 L 259.15,502.42 L 257.95,504.18 L 255.68,507.55 L 254.57,509.21 L 252.50,512.39 L 251.49,513.96 L 249.61,516.96 L 247.77,519.92 L 244.62,525.36 L 243.12,528.02 L 240.60,532.96 L 239.41,535.37 L 237.45,539.92 L 236.54,542.16 L 235.07,546.44 L 233.35,552.71 L 233.24,553.21 L 233.01,554.48 L 232.90,555.15 L 232.68,556.73 L 232.47,558.37 L 232.08,562.41 L 231.90,564.53 L 231.60,569.26 L 231.28,576.75 L 231.21,579.16 L 231.01,583.52 L 230.96,584.55 L 230.84,586.45 L 230.78,587.37 L 230.65,588.99 L 230.59,589.77 L 230.45,591.09 L 230.38,591.70 L 230.25,592.66 L 230.18,593.09 L 230.04,593.65 L 229.84,594.00 L 229.70,594.00 L 229.50,594.71 L 229.42,595.17 L 229.33,596.70 L 229.31,597.55 L 229.34,599.78 L 229.52,603.75 L 229.56,604.42 L 229.66,606.07 L 229.71,606.93 L 229.81,608.92 L 229.92,610.97 L 230.16,615.78 L 230.82,631.00 L 230.89,632.74 L 231.00,635.91 L 231.06,637.44 L 231.14,640.22 L 231.18,641.55 L 231.22,643.95 L 231.24,645.10 L 231.25,647.13 L 231.24,648.11 L 231.20,649.79 L 231.17,650.59 L 231.08,651.94 L 231.02,652.57 L 230.87,653.60 L 230.79,654.08 L 230.57,654.81 L 230.45,655.13 L 230.16,655.57 L 230.01,655.75 L 229.65,655.92 L 229.46,655.97 L 229.02,655.87 L 228.79,655.79 L 228.26,655.45 L 227.71,655.06 L 226.34,653.60 L 225.60,652.76 L 223.81,650.52 L 223.27,649.83 L 222.04,648.11 L 221.41,647.19 L 220.03,645.06 L 219.33,643.95 L 217.82,641.47 L 217.06,640.18 L 215.46,637.40 L 213.84,634.54 L 210.45,628.16 L 209.84,626.94 L 213.07,633.01 L 215.41,636.81 L 220.21,644.22 L 222.75,647.60 L 224.57,649.95 L 225.34,650.82 L 226.78,652.34 L 227.38,652.78 L 228.48,653.43 L 228.92,653.41 L 229.72,653.12 L 230.01,652.60 L 230.29,652.03 L 230.41,651.64 L 230.62,650.81 L 230.71,650.29 L 230.86,649.20 L 230.92,648.54 L 231.02,647.18 L 231.05,646.39 L 231.10,644.74 L 231.10,643.81 L 231.10,641.87 L 231.09,640.80 L 231.05,638.57 L 231.01,637.35 L 230.93,634.82 L 230.87,633.44 L 229.95,619.83 L 229.52,615.63 L 229.30,613.86 L 229.07,612.17 L 228.95,611.43 L 228.73,610.05 L 228.61,609.50 L 226.87,600.40 L 225.86,594.46 L 225.43,591.56 L 223.91,580.13 L 223.45,574.65 L 222.74,563.84 L 222.68,558.64 L 222.78,548.36 L 223.13,543.39 L 224.04,533.56 L 224.80,528.79 L 226.54,519.32 L 227.72,514.69 L 230.28,505.49 L 231.87,500.97 L 235.27,491.96 L 237.28,487.50 L 238.56,484.74 L 239.35,483.09 L 239.68,482.41 L 240.32,481.16 L 240.55,480.75 L 240.94,480.07 L 241.02,480.00 L 241.51,479.33 L 242.05,478.47 L 242.40,477.88 L 243.16,476.61 L 243.58,475.87 L 244.46,474.32 L 244.91,473.50 L 248.07,468.21 L 250.50,464.55 L 251.86,462.66 L 254.70,458.82 L 256.28,456.85 L 259.53,452.85 L 261.31,450.79 L 266.24,445.07 L 261.27,437.29 L 259.31,434.18 L 258.13,432.28 L 257.64,431.48 L 256.75,429.99 L 256.45,429.47 L 255.95,428.59 L 255.90,428.44 L 255.11,426.72 L 254.38,425.33 L 253.93,424.56 L 251.98,421.34 L 250.93,419.78 L 249.88,418.24 L 249.39,417.55 L 248.42,416.24 L 247.99,415.72 L 247.19,414.76 L 246.88,414.46 L 246.34,414.00 L 246.20,414.00 L 245.39,414.25 L 244.69,414.65 L 244.27,414.96 L 243.38,415.66 L 242.88,416.11 L 241.82,417.07 L 241.24,417.64 L 238.77,420.16 L 237.37,421.71 L 234.48,424.99 L 232.94,426.84 L 229.81,430.66 L 228.21,432.71 L 225.02,436.86 L 223.46,438.99 L 220.39,443.26 L 218.96,445.36 L 216.19,449.53 L 214.97,451.50 L 208.32,463.44 L 204.35,471.75 L 202.61,476.05 L 199.28,484.73 L 197.87,489.18 L 195.21,498.13 L 194.13,502.68 L 192.16,511.82 L 191.44,516.42 L 190.17,525.63 L 189.82,530.23 L 189.29,539.42 L 189.31,543.97 L 189.54,553.04 L 189.95,557.50 L 190.58,563.91 L 191.01,567.81 L 191.25,569.62 L 191.73,573.14 L 191.99,574.80 L 192.53,578.05 L 192.83,579.61 L 194.12,585.73 L 194.95,588.80 L 195.81,591.90 L 196.29,593.50 L 197.15,596.29 L 196.93,595.64 L 196.39,594.01 L 195.45,590.97 L 195.00,589.50 L 194.29,586.95 L 193.55,583.89 L 193.37,582.96 L 192.83,580.91 L 192.03,578.50 L 191.55,577.39 L 190.72,575.48 L 190.33,574.59 L 189.65,573.08 L 189.32,572.37 L 188.75,571.21 L 188.48,570.67 L 188.00,569.81 L 187.54,569.02 L 186.75,568.11 L 185.54,567.39 L 184.99,567.20 L 184.04,567.24 L 183.21,567.87 L 183.01,568.48 L 182.37,569.02 L 182.18,569.10 L 181.70,569.05 L 181.45,569.00 L 180.81,568.68 L 180.47,568.49 L 179.64,567.88 L 179.21,567.54 L 178.16,566.62 L 177.60,566.12 L 176.30,564.88 L 174.04,562.63 L 173.25,561.84 L 171.70,560.81 L 171.35,560.61 L 170.75,560.40 L 170.10,560.44 L 169.95,560.53 L 169.67,561.19 L 169.53,561.59 L 169.30,562.74 L 169.20,563.36 L 169.05,564.85 L 168.94,567.31 L 168.92,568.56 L 168.83,570.32 L 168.78,571.07 L 168.62,571.87 L 168.53,572.15 L 168.30,572.05 L 168.18,571.88 L 167.91,570.92 L 167.76,570.34 L 167.45,568.57 L 167.30,567.59 L 166.96,565.08 L 166.79,563.73 L 166.44,560.51 L 165.93,554.96 L 165.67,551.95 L 165.34,545.61 L 165.20,542.39 L 165.10,535.73 L 165.08,532.38 L 165.20,525.52 L 165.29,522.08 L 165.64,515.14 L 165.84,511.67 L 166.40,504.76 L 166.70,501.33 L 167.46,494.58 L 167.87,491.24 L 168.83,484.76 L 170.49,475.49 L 171.19,472.02 L 172.81,465.10 L 173.66,461.65 L 175.56,454.80 L 176.54,451.38 L 178.69,444.67 L 179.79,441.33 L 182.17,434.81 L 183.39,431.58 L 185.97,425.33 L 187.28,422.24 L 190.04,416.31 L 191.44,413.40 L 194.36,407.87 L 198.88,400.09 L 199.60,398.93 L 200.98,396.68 L 201.65,395.58 L 202.85,393.62 L 203.41,392.70 L 204.27,391.25 L 205.05,389.90 L 205.16,389.71 L 205.20,389.31 L 205.19,389.10 L 204.96,388.62 L 204.80,388.37 L 204.20,387.77 L 203.86,387.44 L 202.84,386.65 L 202.27,386.23 L 200.74,385.19 L 199.91,384.64 L 197.81,383.31 L 196.67,382.61 L 193.92,380.93 L 188.97,377.95 L 187.83,377.27 L 185.73,376.01 L 184.71,375.39 L 182.86,374.25 L 181.05,373.14 L 178.10,371.23 L 176.73,370.31 L 174.54,368.70 L 173.53,367.93 L 172.00,366.52 L 171.31,365.84 L 170.32,364.52 L 169.88,363.86 L 169.32,362.52 L 169.09,361.84 L 168.85,360.36 L 168.73,357.88 L 168.73,356.63 L 169.33,354.27 L 169.72,353.12 L 171.01,351.08 L 171.72,350.12 L 173.56,348.58 L 176.79,347.04 L 176.94,347.00 L 177.54,346.92 L 177.89,346.88 L 178.88,346.81 L 179.42,346.78 L 180.77,346.71 L 181.49,346.68 L 183.18,346.61 L 184.06,346.58 L 186.06,346.52 L 187.10,346.49 L 189.39,346.44 L 191.74,346.39 L 197.19,346.30 L 200.02,346.26 L 206.28,346.19 L 209.49,346.15 L 216.35,346.10 L 219.84,346.08 L 227.09,346.05 L 230.75,346.04 L 238.19,346.03 L 245.64,346.02 M 202.84,612.01 L 205.98,619.22 L 205.37,618.00 L 204.93,617.08 L 203.90,614.68 L 203.36,613.41 L 202.21,610.48 L 201.04,607.45 L 198.62,600.65 L 198.13,599.25 M 530.90,546.33 L 530.91,549.13 L 530.93,554.64 L 530.93,557.36 L 530.93,562.60 L 530.93,565.17 L 530.91,570.02 L 530.90,572.39 L 530.86,576.72 L 530.84,578.82 L 530.79,582.51 L 530.76,584.26 L 530.70,587.19 L 530.67,588.55 L 530.59,590.58 L 530.57,591.02 L 530.53,591.73 L 530.46,592.48 L 529.79,597.81 L 520.65,602.35 L 518.13,603.59 L 513.01,605.84 L 511.82,606.35 L 509.77,607.14 L 507.50,607.88 L 506.40,608.16 L 503.50,608.90 L 499.50,609.92 L 498.29,610.23 L 495.55,610.66 L 494.13,610.84 L 491.04,611.00 L 489.45,611.06 L 486.09,610.97 L 484.38,610.90 L 480.83,610.58 L 477.25,610.19 L 469.87,608.74 L 459.14,605.60 L 457.95,605.17 L 455.81,604.64 L 455.34,604.54 L 454.60,604.47 L 453.91,604.55 L 453.79,604.63 L 452.99,604.48 L 452.51,604.37 L 451.12,603.89 L 450.38,603.62 L 448.59,602.88 L 445.65,601.54 L 442.98,600.25 L 445.91,601.39 L 447.73,602.00 L 448.45,602.19 L 449.76,602.47 L 450.20,602.49 L 450.96,602.44 L 451.11,602.29 L 451.70,601.08 L 451.59,600.16 L 451.28,599.65 L 450.50,598.60 L 449.86,598.03 L 448.42,596.85 L 447.46,596.23 L 445.63,594.70 L 444.09,593.16 L 443.23,592.20 L 441.46,590.20 L 440.57,589.10 L 438.79,586.86 L 437.97,585.73 L 435.56,582.42 L 434.05,580.39 L 433.41,579.52 L 432.20,577.90 L 431.76,577.32 L 431.00,576.32 L 430.85,576.14 L 430.42,575.50 L 430.02,574.82 L 429.76,574.36 L 429.21,573.37 L 428.90,572.77 L 428.23,571.53 L 427.87,570.82 L 426.32,567.82 L 425.46,566.13 L 423.72,562.64 L 422.84,560.86 L 421.09,557.30 L 420.29,555.62 L 418.74,552.38 L 418.10,551.01 L 417.49,549.69 L 417.24,549.12 L 416.76,548.04 L 416.57,547.61 L 416.25,546.82 L 416.15,546.55 L 416.00,546.10 L 416.00,546.02 L 415.72,544.77 L 415.30,543.71 L 415.04,543.24 L 414.46,542.12 L 414.01,541.18 L 413.75,540.61 L 413.21,539.39 L 412.91,538.68 L 412.28,537.18 L 411.92,536.32 L 411.19,534.54 L 410.79,533.54 L 409.96,531.46 L 409.51,530.31 L 408.58,527.94 L 408.07,526.64 L 407.04,523.96 L 406.48,522.50 L 404.93,518.54 L 403.96,516.15 L 403.54,515.16 L 402.75,513.33 L 402.45,512.71 L 402.18,512.14 L 402.07,511.94 L 401.89,511.62 L 401.83,511.55 L 401.27,510.28 L 401.06,509.11 L 401.08,508.55 L 401.27,507.44 L 401.50,507.34 L 401.63,507.66 L 402.41,508.60 L 403.46,509.65 L 404.19,510.32 L 405.77,511.75 L 406.70,512.56 L 408.64,514.22 L 409.68,515.08 L 414.11,519.03 L 417.40,522.22 L 419.17,524.03 L 422.78,527.79 L 424.66,529.83 L 428.44,534.00 L 430.34,536.18 L 437.96,545.12 L 441.48,549.58 L 444.92,554.00 L 446.49,556.12 L 449.53,560.30 L 450.85,562.24 L 454.52,567.58 L 456.67,570.62 L 457.62,571.91 L 459.45,574.35 L 460.26,575.38 L 461.84,577.30 L 462.56,578.09 L 463.96,579.58 L 464.62,580.19 L 465.93,581.33 L 466.57,581.80 L 469.15,583.42 L 470.60,584.04 L 474.98,585.67 L 477.59,586.36 L 478.83,586.52 L 481.28,586.70 L 482.53,586.61 L 485.07,586.32 L 486.45,586.01 L 491.38,584.65 L 494.07,583.60 L 495.17,582.99 L 497.20,581.69 L 498.01,580.92 L 499.51,579.29 L 500.11,578.32 L 501.14,576.07 L 501.64,574.33 L 501.79,573.36 L 502.04,571.36 L 502.06,570.29 L 502.06,568.10 L 501.97,566.96 L 501.35,562.28 L 500.69,559.91 L 499.14,555.19 L 498.03,553.00 L 494.12,546.30 L 491.10,542.06 L 489.40,540.05 L 485.87,536.12 L 483.92,534.28 L 479.90,530.68 L 477.71,529.01 L 473.23,525.77 L 470.83,524.29 L 465.91,521.42 L 463.30,520.13 L 457.98,517.66 L 455.18,516.58 L 449.48,514.53 L 446.50,513.67 L 442.26,512.44 L 439.03,511.51 L 437.35,511.03 L 433.99,510.06 L 432.40,509.61 L 429.31,508.72 L 428.00,508.35 L 418.84,505.73 L 420.94,505.73 L 426.35,505.72 L 434.87,505.70 L 530.67,505.50 M 394.86,596.58 L 391.63,597.51 L 385.40,600.10 L 382.33,601.52 L 376.49,605.09 L 375.99,605.43 L 376.14,605.31 L 381.70,601.83 L 384.61,600.43 L 390.51,597.85 L 393.58,596.90 L 399.77,595.24 L 401.14,595.03 M 439.31,598.74 L 441.37,599.59 L 436.95,598.01 M 429.23,595.74 L 430.12,595.99 L 427.60,595.47 M 402.33,594.84 L 402.95,594.75 L 404.08,594.62 M 405.07,594.50 L 409.36,594.01 L 410.63,594.00 M 419.22,594.17 L 420.18,594.30 L 416.72,594.10 M 299.87,540.68 L 300.00,540.14 L 300.29,539.28 M 320.59,513.09 L 319.20,514.03 L 315.38,516.79 L 313.05,518.71 L 311.99,519.72 L 311.23,520.48 L 312.42,519.23 L 315.50,516.58 L 317.08,515.31 L 320.53,513.07 L 322.30,512.00 L 322.61,511.84 M 378.50,505.89 L 370.48,505.95 L 365.60,505.99 L 363.38,506.02 L 359.09,506.07 L 357.14,506.11 L 353.37,506.19 L 351.66,506.24 L 348.37,506.34 L 346.89,506.40 L 344.03,506.54 L 342.74,506.62 L 340.26,506.80 L 339.15,506.91 L 337.00,507.14 L 336.03,507.27 L 332.56,507.83 L 332.97,507.71 L 334.65,507.29 L 335.54,507.10 L 337.87,506.78 L 338.53,506.71 L 340.10,506.58 L 340.93,506.52 L 342.92,506.41 L 343.98,506.36 L 346.49,506.27 L 347.81,506.22 L 350.93,506.15 L 352.57,506.11 L 356.38,506.05 L 358.39,506.02 L 363.00,505.97 L 365.41,505.94 L 370.91,505.90 L 373.78,505.88 L 380.26,505.85 L 381.95,505.84 L 385.52,505.83 L 387.34,505.82 L 391.20,505.81 L 392.41,505.80 Z" fill="rgba(44,171,102,1)"/>
<path d="M 246.88,414.46 L 247.19,414.76 L 247.99,415.72 L 248.42,416.24 L 249.39,417.55 L 249.88,418.24 L 250.93,419.78 L 251.98,421.34 L 253.93,424.56 L 254.38,425.33 L 255.11,426.72 L 255.90,428.44 L 255.95,428.59 L 256.45,429.47 L 256.75,429.99 L 257.64,431.48 L 258.13,432.28 L 259.31,434.18 L 261.27,437.29 L 266.24,445.07 L 261.31,450.79 L 259.53,452.85 L 256.28,456.85 L 254.70,458.82 L 251.86,462.66 L 250.50,464.55 L 248.07,468.21 L 244.91,473.50 L 244.46,474.32 L 243.58,475.87 L 243.16,476.61 L 242.40,477.88 L 242.05,478.47 L 241.51,479.33 L 241.02,480.00 L 240.94,480.07 L 240.55,480.75 L 240.32,481.16 L 239.68,482.41 L 239.35,483.09 L 238.56,484.74 L 237.28,487.50 L 235.27,491.96 L 231.87,500.97 L 230.28,505.49 L 227.72,514.69 L 226.54,519.32 L 224.80,528.79 L 224.04,533.56 L 223.13,543.39 L 222.78,548.36 L 222.68,558.64 L 222.74,563.84 L 223.45,574.65 L 223.91,580.13 L 225.43,591.56 L 225.86,594.46 L 226.87,600.40 L 228.61,609.50 L 228.73,610.05 L 228.95,611.43 L 229.07,612.17 L 229.30,613.86 L 229.52,615.63 L 229.95,619.83 L 230.87,633.44 L 230.93,634.82 L 231.01,637.35 L 231.05,638.57 L 231.09,640.80 L 231.10,641.87 L 231.10,643.81 L 231.10,644.74 L 231.05,646.39 L 231.02,647.18 L 230.92,648.54 L 230.86,649.20 L 230.71,650.29 L 230.62,650.81 L 230.41,651.64 L 230.29,652.03 L 230.01,652.60 L 229.72,653.12 L 228.92,653.41 L 228.48,653.43 L 227.38,652.78 L 226.78,652.34 L 225.34,650.82 L 224.57,649.95 L 222.75,647.60 L 220.21,644.22 L 215.41,636.81 L 213.07,633.01 L 208.73,624.86 L 206.63,620.72 L 202.84,612.01 L 197.86,598.50 L 197.29,596.77 L 196.29,593.50 L 195.81,591.90 L 194.95,588.80 L 194.12,585.73 L 192.83,579.61 L 192.53,578.05 L 191.99,574.80 L 191.73,573.14 L 191.25,569.62 L 191.01,567.81 L 190.58,563.91 L 189.95,557.50 L 189.54,553.04 L 189.31,543.97 L 189.29,539.42 L 189.82,530.23 L 190.17,525.63 L 191.44,516.42 L 192.16,511.82 L 194.13,502.68 L 195.21,498.13 L 197.87,489.18 L 199.28,484.73 L 202.61,476.05 L 204.35,471.75 L 208.32,463.44 L 214.97,451.50 L 216.19,449.53 L 218.96,445.36 L 220.39,443.26 L 223.46,438.99 L 225.02,436.86 L 228.21,432.71 L 229.81,430.66 L 232.94,426.84 L 234.48,424.99 L 237.37,421.71 L 238.77,420.16 L 241.24,417.64 L 241.82,417.07 L 242.88,416.11 L 243.38,415.66 L 244.27,414.96 L 244.69,414.65 L 245.39,414.25 L 246.20,414.00 L 246.34,414.00 M 347.53,644.59 L 347.65,644.12 L 347.81,643.66 M 668.18,544.95 L 671.72,544.95 L 678.58,544.98 L 681.96,545.00 L 688.33,545.05 L 691.43,545.08 L 697.08,545.15 L 699.79,545.19 L 704.50,545.29 L 705.60,545.32 L 707.61,545.38 L 708.57,545.41 L 710.26,545.47 L 711.06,545.51 L 712.41,545.58 L 713.04,545.62 L 714.03,545.69 L 714.47,545.73 L 715.06,545.82 L 715.47,545.95 L 715.55,546.08 L 715.58,547.09 L 715.58,547.71 L 715.45,549.50 L 715.37,550.48 L 715.10,552.82 L 714.57,556.70 L 714.36,558.05 L 713.87,561.29 L 713.61,562.97 L 713.06,566.56 L 712.79,568.35 L 712.26,571.84 L 711.54,576.50 L 711.44,577.19 L 711.20,578.89 L 711.08,579.78 L 710.82,581.84 L 710.56,583.98 L 709.99,589.00 L 708.42,605.00 L 708.19,607.71 L 707.70,612.54 L 707.57,613.68 L 707.32,615.79 L 707.20,616.80 L 706.95,618.61 L 706.83,619.48 L 706.60,620.96 L 706.48,621.66 L 706.26,622.78 L 706.15,623.29 L 705.95,624.00 L 705.67,624.58 L 705.44,624.79 L 704.48,625.38 L 703.93,625.70 L 702.46,626.45 L 700.90,627.22 L 697.00,628.92 L 696.02,629.33 L 694.11,630.09 L 693.17,630.46 L 691.47,631.08 L 690.67,631.36 L 689.37,631.75 L 688.06,632.00 L 687.71,632.00 L 687.06,631.71 L 686.74,631.51 L 686.11,630.76 L 685.80,630.33 L 685.14,629.05 L 684.81,628.35 L 684.08,626.48 L 682.85,623.21 L 680.26,617.28 L 678.91,614.40 L 675.93,609.11 L 674.37,606.52 L 670.80,601.66 L 668.92,599.26 L 664.56,594.63 L 663.41,593.47 L 660.93,591.17 L 659.66,590.02 L 656.91,587.71 L 655.50,586.55 L 652.47,584.20 L 650.91,583.02 L 647.56,580.61 L 645.84,579.39 L 642.14,576.89 L 640.25,575.63 L 636.18,573.02 L 634.11,571.69 L 629.65,568.94 L 622.50,564.63 L 620.75,563.59 L 617.44,561.53 L 615.82,560.50 L 612.81,558.50 L 611.36,557.52 L 608.72,555.64 L 607.46,554.71 L 605.25,553.00 L 604.21,552.16 L 602.49,550.66 L 601.70,549.94 L 600.54,548.69 L 600.03,548.11 L 599.47,547.17 L 599.40,546.17 L 599.43,546.12 L 599.81,546.03 L 600.05,545.99 L 600.84,545.90 L 601.29,545.86 L 602.46,545.78 L 603.09,545.74 L 604.61,545.67 L 605.41,545.63 L 607.26,545.57 L 608.23,545.53 L 610.37,545.47 L 612.59,545.41 L 617.79,545.30 L 620.51,545.25 L 626.54,545.16 L 629.64,545.12 L 636.29,545.06 L 639.66,545.03 L 646.69,544.99 L 650.24,544.97 L 657.43,544.95 L 661.03,544.94 M 355.18,627.27 L 354.99,627.59 L 355.13,627.33 L 355.97,626.06 M 376.14,605.31 L 368.27,611.53 L 366.54,613.11 L 363.36,616.44 L 361.81,618.13 L 359.14,621.50 L 360.31,619.85 L 362.28,617.56 L 366.37,613.12 L 368.61,611.11 L 373.22,607.25 L 375.71,605.55 L 380.81,602.33 L 381.20,602.14 M 432.20,577.90 L 433.41,579.52 L 434.05,580.39 L 435.56,582.42 L 437.97,585.73 L 438.79,586.86 L 440.57,589.10 L 441.46,590.20 L 443.23,592.20 L 444.09,593.16 L 445.63,594.70 L 447.46,596.23 L 448.42,596.85 L 449.86,598.03 L 450.50,598.60 L 451.28,599.65 L 451.59,600.16 L 451.70,601.08 L 451.11,602.29 L 450.96,602.44 L 450.20,602.49 L 449.76,602.47 L 448.45,602.19 L 447.73,602.00 L 445.91,601.39 L 442.67,600.14 L 439.51,598.82 L 443.38,600.25 L 446.24,601.47 L 447.26,601.73 L 447.80,601.71 L 448.01,601.61 L 448.67,601.00 L 448.72,600.47 L 448.65,599.29 L 448.32,598.63 L 447.47,597.27 L 446.74,596.65 L 445.26,595.15 L 443.93,593.60 L 443.14,592.64 L 441.51,590.60 L 440.65,589.47 L 438.92,587.17 L 438.08,586.00 L 435.63,582.59 L 434.10,580.49 L 433.44,579.60 L 432.21,577.93 L 431.77,577.34 L 431.00,576.32 L 431.76,577.32 M 424.12,594.86 L 428.71,595.61 L 431.03,596.19 L 435.73,597.47 L 438.23,598.35 L 439.17,598.69 L 432.59,596.66 L 429.23,595.74 L 423.89,594.84 M 393.87,596.82 L 396.72,595.92 L 398.74,595.51 M 403.94,594.63 L 404.81,594.49 L 405.61,594.44 M 428.00,508.35 L 429.31,508.72 L 432.40,509.61 L 433.99,510.06 L 437.35,511.03 L 439.03,511.51 L 442.26,512.44 L 446.50,513.67 L 449.48,514.53 L 455.18,516.58 L 457.98,517.66 L 463.30,520.13 L 465.91,521.42 L 470.83,524.29 L 473.23,525.77 L 477.71,529.01 L 479.90,530.68 L 483.92,534.28 L 485.87,536.12 L 489.40,540.05 L 491.10,542.06 L 494.12,546.30 L 498.03,553.00 L 499.14,555.19 L 500.69,559.91 L 501.35,562.28 L 501.97,566.96 L 502.06,568.10 L 502.06,570.29 L 502.04,571.36 L 501.79,573.36 L 501.64,574.33 L 501.14,576.07 L 500.11,578.32 L 499.51,579.29 L 498.01,580.92 L 497.20,581.69 L 495.17,582.99 L 494.07,583.60 L 491.38,584.65 L 486.45,586.01 L 485.07,586.32 L 482.53,586.61 L 481.28,586.70 L 478.83,586.52 L 477.59,586.36 L 474.98,585.67 L 470.60,584.04 L 469.15,583.42 L 466.57,581.80 L 465.93,581.33 L 464.62,580.19 L 463.96,579.58 L 462.56,578.09 L 461.84,577.30 L 460.26,575.38 L 459.45,574.35 L 457.62,571.91 L 456.67,570.62 L 454.52,567.58 L 450.85,562.24 L 449.53,560.30 L 446.49,556.12 L 444.92,554.00 L 441.48,549.58 L 437.96,545.12 L 430.34,536.18 L 428.44,534.00 L 424.66,529.83 L 422.78,527.79 L 419.17,524.03 L 417.40,522.22 L 414.11,519.03 L 409.68,515.08 L 408.64,514.22 L 406.70,512.56 L 405.77,511.75 L 404.19,510.32 L 403.46,509.65 L 402.41,508.60 L 401.63,507.66 L 401.50,507.34 L 401.27,507.44 L 401.08,508.55 L 401.06,509.11 L 401.26,510.24 L 401.24,510.20 L 401.00,508.93 L 401.00,506.00 L 369.86,506.00 L 364.25,506.01 L 365.60,505.99 L 370.48,505.95 L 378.50,505.89 L 418.50,505.63 M 326.78,509.66 L 324.33,510.84 L 323.09,511.56 L 320.58,513.10 L 320.59,513.09 L 323.09,511.55 L 324.33,510.82 L 326.80,509.65 L 326.96,509.58 M 329.15,453.20 L 329.64,453.32 L 330.55,453.69 L 330.97,453.89 L 331.59,454.37 L 332.00,455.11 L 332.00,455.43 L 331.75,455.80 L 331.59,455.94 L 331.05,455.94 L 330.74,455.89 L 329.93,455.51 L 329.49,455.27 L 328.44,454.53 L 327.91,454.13 L 327.41,453.49 L 327.34,453.35 L 327.37,453.16 L 327.67,453.03 L 328.14,453.02 Z" fill="rgba(85,194,109,1)"/>
<path d="M 298.41,567.56 L 299.01,573.28 L 299.52,576.13 L 300.69,581.87 L 301.52,584.91 L 302.39,587.98 L 302.89,589.58 L 303.93,592.84 L 304.52,594.56 L 306.11,599.04 L 307.14,601.82 L 307.66,603.13 L 309.75,608.17 L 310.85,610.50 L 313.13,615.07 L 314.41,617.34 L 317.09,621.90 L 318.66,624.33 L 320.58,627.09 L 322.09,629.08 L 322.94,630.12 L 326.56,634.41 L 328.54,636.55 L 332.57,640.76 L 334.53,642.61 L 336.47,644.41 L 337.39,645.20 L 339.18,646.71 L 340.00,647.33 L 341.97,648.72 L 342.82,649.20 L 343.63,649.64 L 343.95,649.78 L 344.52,649.99 L 344.68,649.99 L 345.27,649.54 L 345.74,648.83 L 346.00,648.31 L 346.53,647.17 L 346.79,646.48 L 347.30,645.04 L 347.53,644.25 L 350.78,635.45 L 353.54,629.83 L 355.20,627.17 L 358.68,621.96 L 359.72,620.68 L 356.81,624.80 L 355.13,627.33 L 352.24,632.72 L 350.88,635.46 L 348.67,641.21 L 347.65,644.12 L 346.15,650.17 L 344.76,659.50 L 344.50,662.50 L 335.00,662.66 L 332.39,662.71 L 327.37,662.56 L 326.22,662.50 L 324.33,662.35 L 323.47,662.26 L 322.36,662.06 L 321.12,661.76 L 318.66,660.76 L 317.44,660.20 L 315.07,658.73 L 313.89,657.94 L 311.64,656.04 L 310.53,655.05 L 308.44,652.78 L 307.43,651.61 L 305.55,649.02 L 304.65,647.69 L 303.03,644.83 L 302.26,643.37 L 300.94,640.30 L 299.36,635.50 L 299.23,635.03 L 299.01,633.30 L 298.90,632.32 L 298.70,629.67 L 298.61,628.25 L 298.45,624.82 L 298.37,623.03 L 298.24,618.95 L 298.18,616.85 L 298.08,612.26 L 298.04,609.92 L 297.98,604.95 L 297.92,599.92 L 297.91,589.28 L 297.91,583.96 L 298.03,573.56 L 298.06,571.03 L 298.16,566.19 L 298.21,563.82 L 298.23,563.08 M 364.17,615.52 L 364.77,614.83 L 365.02,614.59 M 378.17,604.00 L 379.30,603.23 L 379.94,602.88 M 399.39,595.38 L 396.72,595.92 L 391.50,597.57 L 383.68,600.92 L 387.48,599.02 L 390.34,597.95 L 396.11,596.02 L 399.07,595.39 L 400.43,595.21 M 430.34,596.02 L 430.36,596.02 L 430.33,596.01 M 417.81,594.20 L 424.24,594.80 L 427.31,595.38 L 427.34,595.39 L 424.12,594.86 L 417.00,594.25 L 415.34,594.18 L 412.20,594.16 L 410.66,594.17 L 407.71,594.31 L 406.82,594.36 L 408.18,594.18 L 414.58,593.99 M 300.78,537.68 L 299.64,541.75 L 299.31,543.54 L 299.51,542.23 L 299.87,540.68 L 300.75,537.75 L 301.02,536.91 M 412.59,537.92 L 412.38,537.43 L 412.30,537.24 M 401.00,508.93 L 401.24,510.20 L 401.83,511.55 L 401.89,511.62 L 402.07,511.94 L 402.18,512.14 L 402.45,512.71 L 402.75,513.33 L 403.54,515.16 L 403.96,516.15 L 404.93,518.54 L 406.48,522.50 L 407.04,523.96 L 408.07,526.64 L 408.58,527.94 L 409.51,530.31 L 409.96,531.46 L 410.79,533.54 L 411.19,534.54 L 411.92,536.32 L 412.22,537.04 L 412.03,536.59 L 411.31,534.83 L 410.90,533.84 L 410.06,531.76 L 409.60,530.60 L 408.64,528.19 L 408.12,526.85 L 407.03,524.10 L 406.45,522.58 L 404.72,518.49 L 403.50,515.85 L 402.89,514.67 L 401.70,512.44 L 401.17,511.56 L 400.16,510.01 L 399.77,509.58 L 396.95,506.50 L 367.98,506.21 L 362.08,506.16 L 358.47,506.14 L 356.81,506.14 L 353.59,506.15 L 352.11,506.17 L 349.24,506.21 L 347.92,506.24 L 347.28,506.26 L 348.50,506.22 L 349.89,506.17 L 352.93,506.11 L 354.50,506.08 L 357.93,506.04 L 359.70,506.03 L 363.55,506.01 L 369.86,506.00 L 401.00,506.00 M 302.20,533.86 L 302.31,533.59 L 302.88,532.26 L 302.96,532.11 M 304.57,529.05 L 304.87,528.51 L 305.44,527.64 M 309.58,522.18 L 308.04,524.02 L 309.01,522.83 L 309.94,521.76 L 310.20,521.50 M 311.80,519.91 L 311.99,519.72 L 313.05,518.71 L 313.89,518.02 M 319.20,514.03 L 314.10,517.85 L 315.38,516.79 L 319.20,514.03 L 320.58,513.10 L 320.58,513.10 M 323.13,511.54 L 320.98,512.86 L 323.09,511.56 L 324.33,510.84 L 324.36,510.82 M 442.09,222.82 L 443.48,222.98 L 446.61,223.43 L 448.20,223.67 L 451.45,224.23 L 453.06,224.51 L 456.06,225.11 L 459.83,225.96 L 461.77,226.46 L 466.24,227.84 L 468.50,228.57 L 472.91,230.16 L 473.96,230.55 L 475.90,231.31 L 476.82,231.69 L 478.42,232.38 L 479.16,232.71 L 480.29,233.29 L 481.34,233.98 L 481.49,234.12 L 481.66,234.49 L 481.71,234.70 L 481.60,235.32 L 481.50,235.68 L 481.02,236.71 L 480.72,237.30 L 479.77,238.90 L 479.22,239.79 L 477.70,242.14 L 477.28,242.78 L 476.32,244.22 L 475.81,244.97 L 474.67,246.65 L 474.08,247.53 L 472.75,249.47 L 472.06,250.47 L 470.53,252.69 L 469.74,253.84 L 468.00,256.36 L 465.14,260.50 L 461.60,265.61 L 454.12,276.47 L 450.35,281.97 L 442.67,293.20 L 438.84,298.81 L 431.33,309.86 L 429.49,312.58 L 425.89,317.90 L 424.11,320.53 L 420.68,325.61 L 418.99,328.12 L 415.78,332.89 L 414.21,335.24 L 411.27,339.64 L 409.83,341.78 L 407.20,345.74 L 405.93,347.65 L 403.66,351.09 L 402.57,352.74 L 400.70,355.60 L 399.82,356.95 L 398.40,359.15 L 397.75,360.17 L 396.84,361.65 L 396.07,362.99 L 395.68,363.82 L 394.89,365.10 L 394.71,365.37 L 394.40,365.74 L 394.07,365.96 L 394.03,365.96 L 393.59,365.72 L 393.31,365.57 L 392.43,365.05 L 391.94,364.75 L 390.67,363.98 L 389.99,363.57 L 388.38,362.58 L 387.54,362.06 L 385.64,360.88 L 384.66,360.27 L 382.53,358.94 L 380.35,357.57 L 375.50,354.49 L 374.26,353.71 L 371.48,351.95 L 370.05,351.04 L 366.96,349.09 L 363.81,347.10 L 357.02,342.81 L 353.61,340.67 L 346.91,336.46 L 345.28,335.43 L 342.18,333.49 L 337.87,330.79 L 336.48,329.92 L 333.95,328.35 L 332.74,327.60 L 330.56,326.24 L 329.51,325.59 L 327.66,324.42 L 326.77,323.85 L 325.23,322.83 L 324.49,322.33 L 323.24,321.44 L 323.25,321.45 L 325.35,322.86 L 326.72,323.74 L 328.14,324.65 L 328.94,325.16 L 330.60,326.21 L 331.52,326.79 L 333.43,327.99 L 334.49,328.65 L 336.67,330.01 L 337.87,330.76 L 343.19,334.04 L 345.61,335.49 L 347.98,336.90 L 349.08,337.55 L 351.21,338.78 L 352.17,339.33 L 354.00,340.36 L 354.79,340.79 L 356.27,341.58 L 356.86,341.87 L 357.92,342.39 L 358.28,342.54 L 358.88,342.76 L 358.98,342.74 L 360.23,341.83 L 360.96,340.68 L 361.16,339.99 L 364.61,328.99 L 367.19,322.06 L 368.61,318.78 L 371.56,312.34 L 373.19,309.29 L 376.53,303.32 L 378.36,300.51 L 382.12,294.98 L 384.16,292.37 L 388.34,287.26 L 390.60,284.85 L 395.24,280.13 L 397.73,277.90 L 402.83,273.54 L 405.56,271.49 L 408.64,269.33 L 411.02,267.78 L 412.34,266.98 L 417.90,263.72 L 420.82,262.15 L 426.68,259.11 L 429.35,257.88 L 431.94,256.71 L 433.10,256.23 L 435.33,255.36 L 436.25,255.06 L 438.05,254.46 L 438.96,254.10 L 439.26,253.91 L 439.74,253.55 L 439.79,253.34 L 439.79,252.89 L 439.58,252.62 L 439.04,252.03 L 438.55,251.66 L 437.42,250.86 L 436.62,250.36 L 434.85,249.28 L 433.71,248.61 L 431.25,247.19 L 429.75,246.32 L 427.02,244.74 L 424.94,243.53 L 423.85,242.90 L 421.67,241.63 L 420.63,241.03 L 418.61,239.85 L 417.75,239.35 L 414.78,237.63 L 412.49,236.31 L 411.30,235.63 L 408.89,234.26 L 407.75,233.61 L 405.51,232.35 L 404.56,231.82 L 397.77,228.03 L 399.54,227.44 L 402.38,226.56 L 408.15,225.12 L 411.04,224.46 L 416.85,223.47 L 419.75,223.03 L 425.51,222.51 L 428.37,222.31 L 433.97,222.28 M 335.01,280.26 L 330.72,287.30 L 328.70,291.04 L 325.17,298.01 L 323.04,302.67 L 322.15,304.85 L 320.50,309.09 L 319.91,310.91 L 319.37,312.66 L 319.17,313.44 L 318.82,314.91 L 318.73,315.48 L 318.68,315.05 L 319.00,313.34 L 319.22,312.43 L 320.03,310.21 L 321.63,306.05 L 322.86,302.80 L 325.89,296.20 L 327.50,292.90 L 331.22,286.30 L 333.15,283.02 L 335.75,279.10 M 339.12,274.12 L 339.63,273.38 L 339.87,273.07 M 391.06,230.55 L 381.94,234.74 L 376.02,238.04 L 373.15,239.94 L 367.47,243.91 L 364.72,246.13 L 361.39,248.96 L 362.33,248.07 L 367.72,243.67 L 375.79,238.03 L 378.16,236.58 L 383.22,233.93 L 385.79,232.65 L 391.18,230.39 L 393.91,229.31 L 395.52,228.77 M 631.54,197.96 L 635.33,199.99 L 642.63,204.34 L 646.24,206.56 L 653.15,211.27 L 663.05,218.75 L 664.93,220.26 L 668.79,223.65 L 670.73,225.39 L 674.65,229.17 L 675.16,229.67 L 668.07,223.08 L 663.89,219.66 L 655.39,212.98 L 650.90,209.88 L 641.78,203.84 L 637.00,201.07 L 629.10,196.70 M 383.04,201.07 L 382.23,201.62 L 381.95,201.86 L 381.47,202.29 L 381.34,202.46 L 381.16,202.78 L 381.17,202.91 L 381.27,203.13 L 381.42,203.22 L 382.60,203.43 L 383.79,203.37 L 384.58,203.24 L 386.28,202.91 L 387.31,202.65 L 389.48,202.05 L 390.74,201.66 L 391.30,201.51 L 390.66,201.71 L 385.26,203.56 L 383.95,204.04 L 381.52,204.87 L 380.35,205.27 L 378.39,205.89 L 377.49,206.17 L 376.21,206.51 L 375.30,206.64 L 375.21,206.55 L 375.55,206.10 L 375.80,205.84 L 376.75,205.10 L 377.29,204.70 L 378.75,203.71 L 379.54,203.20 L 381.42,202.03 L 382.41,201.42 L 383.26,200.92 M 399.03,199.39 L 399.69,199.21 L 400.19,199.10 M 437.54,196.60 L 441.89,196.74 L 443.93,196.86 L 447.94,197.14 L 449.85,197.34 L 451.79,197.56 L 449.70,197.33 L 447.77,197.13 L 443.71,196.86 L 441.64,196.75 L 437.21,196.62 L 430.00,196.56 L 427.49,196.57 L 422.93,196.66 L 420.71,196.71 L 416.64,196.92 L 414.66,197.04 L 410.97,197.37 L 409.16,197.56 L 405.72,198.05 L 404.11,198.30 L 405.46,198.03 L 408.51,197.63 L 411.60,197.27 L 413.24,197.13 L 416.59,196.88 L 418.39,196.79 L 422.08,196.64 L 424.09,196.60 L 428.23,196.53 L 430.50,196.53 M 406.97,189.03 L 397.50,193.26 L 392.94,195.61 L 391.52,196.34 L 396.00,193.98 L 398.96,192.50 L 405.13,189.72 L 408.26,188.36 L 411.50,187.10 M 619.89,192.15 L 623.86,193.99 L 625.54,194.86 L 622.21,193.26 L 614.69,189.82 M 607.73,186.92 L 607.82,186.95 L 607.67,186.90 M 412.14,186.84 L 414.74,185.83 L 418.01,184.60 L 421.35,183.48 M 599.38,183.73 L 605.70,186.14 L 596.98,182.92 M 517.28,169.06 L 524.83,169.31 L 528.60,169.47 L 536.07,170.02 L 539.78,170.33 L 547.12,171.18 L 550.77,171.65 L 557.95,172.81 L 558.15,172.85 L 554.84,172.34 L 547.71,171.34 L 544.04,170.94 L 536.63,170.22 L 532.80,169.95 L 525.04,169.50 L 521.00,169.36 L 503.38,169.27 L 493.39,169.64 L 494.44,169.56 L 502.06,169.23 L 505.87,169.09 L 513.48,169.05 M 414.48,542.17 L 415.04,543.24 L 414.49,542.19 M 698.88,257.19 L 702.03,261.67 L 706.33,268.24 L 698.75,257.01 Z" fill="rgba(96,155,32,1)"/>
<path d="M 340.00,647.33 L 339.18,646.71 L 337.39,645.20 L 336.47,644.41 L 334.53,642.61 L 332.57,640.76 L 328.54,636.55 L 326.56,634.41 L 322.94,630.12 L 322.09,629.08 L 320.58,627.09 L 318.66,624.33 L 317.09,621.90 L 314.41,617.34 L 313.13,615.07 L 310.85,610.50 L 309.75,608.17 L 307.66,603.13 L 307.14,601.82 L 306.11,599.04 L 304.52,594.56 L 303.93,592.84 L 302.89,589.58 L 302.39,587.98 L 301.52,584.91 L 300.69,581.87 L 299.52,576.13 L 299.01,573.28 L 298.41,567.56 L 298.05,558.50 L 298.04,555.83 L 298.33,550.87 L 298.53,548.45 L 299.23,543.95 L 299.64,541.75 L 300.78,537.68 L 301.41,535.69 L 303.00,532.00 L 303.86,530.20 L 305.93,526.85 L 307.02,525.22 L 309.58,522.18 L 310.93,520.70 L 314.00,517.93 L 319.20,514.03 L 320.59,513.10 L 323.13,511.54 L 324.39,510.81 L 326.85,509.62 L 328.11,509.06 L 330.78,508.19 L 332.17,507.79 L 335.32,507.20 L 336.98,506.93 L 340.90,506.57 L 341.94,506.49 L 344.20,506.37 L 345.37,506.32 L 347.92,506.24 L 349.24,506.21 L 352.11,506.17 L 353.59,506.15 L 356.81,506.14 L 358.47,506.14 L 362.08,506.16 L 367.98,506.21 L 396.95,506.50 L 399.77,509.58 L 400.16,510.01 L 401.17,511.56 L 401.70,512.44 L 402.89,514.67 L 403.50,515.85 L 404.72,518.49 L 406.45,522.58 L 407.03,524.10 L 408.12,526.85 L 408.64,528.19 L 409.60,530.60 L 410.06,531.76 L 410.90,533.84 L 411.31,534.83 L 412.03,536.59 L 412.38,537.43 L 413.00,538.89 L 413.30,539.58 L 413.82,540.75 L 414.07,541.29 L 414.49,542.19 L 415.04,543.24 L 415.30,543.71 L 415.72,544.77 L 416.00,546.02 L 416.00,546.10 L 416.15,546.55 L 416.25,546.82 L 416.57,547.61 L 416.76,548.04 L 417.24,549.12 L 417.49,549.69 L 418.10,551.01 L 418.74,552.38 L 420.29,555.62 L 421.09,557.30 L 422.84,560.86 L 423.72,562.64 L 425.46,566.13 L 426.32,567.82 L 427.87,570.82 L 428.23,571.53 L 428.90,572.77 L 429.21,573.37 L 429.76,574.36 L 430.02,574.82 L 430.42,575.50 L 430.85,576.14 L 431.00,576.32 L 431.77,577.34 L 432.21,577.93 L 433.44,579.60 L 434.10,580.49 L 435.63,582.59 L 438.08,586.00 L 438.92,587.17 L 440.65,589.47 L 441.51,590.60 L 443.14,592.64 L 443.93,593.60 L 445.26,595.15 L 446.74,596.65 L 447.47,597.27 L 448.32,598.63 L 448.65,599.29 L 448.72,600.47 L 448.67,601.00 L 448.01,601.61 L 447.80,601.71 L 447.26,601.73 L 446.24,601.47 L 446.00,601.37 L 444.89,600.94 L 444.25,600.70 L 442.51,600.06 L 441.59,599.72 L 439.44,598.94 L 436.00,597.70 L 434.65,597.22 L 431.79,596.40 L 430.34,596.02 L 427.31,595.38 L 424.24,594.80 L 417.81,594.20 L 414.58,593.99 L 408.18,594.18 L 399.07,595.39 L 396.11,596.02 L 390.34,597.95 L 387.48,599.02 L 382.00,601.76 L 379.30,603.23 L 374.19,606.72 L 371.69,608.54 L 367.03,612.68 L 364.77,614.83 L 360.66,619.54 L 358.68,621.96 L 355.20,627.17 L 353.54,629.83 L 350.78,635.45 L 347.53,644.25 L 347.30,645.04 L 346.79,646.48 L 346.53,647.17 L 346.00,648.31 L 345.74,648.83 L 345.27,649.54 L 344.68,649.99 L 344.52,649.99 L 343.95,649.78 L 343.63,649.64 L 342.82,649.20 L 341.97,648.72 M 346.87,574.55 L 348.09,574.11 L 350.33,573.09 L 351.41,572.54 L 353.37,571.29 L 354.31,570.64 L 355.99,569.17 L 356.80,568.41 L 358.20,566.73 L 358.86,565.86 L 359.98,563.96 L 360.50,562.98 L 361.34,560.87 L 361.72,559.79 L 362.27,557.46 L 362.77,553.75 L 362.91,551.83 L 362.71,548.24 L 362.53,546.49 L 361.71,543.27 L 361.22,541.70 L 359.83,538.88 L 359.06,537.53 L 357.12,535.15 L 356.09,534.03 L 353.65,532.14 L 352.38,531.26 L 349.47,529.91 L 347.97,529.30 L 344.64,528.51 L 339.21,528.02 L 337.47,528.02 L 334.39,528.37 L 332.90,528.62 L 330.17,529.54 L 328.83,530.08 L 326.25,531.64 L 322.35,534.78 L 320.87,536.15 L 318.61,539.27 L 317.59,540.87 L 316.24,544.32 L 315.68,546.08 L 315.23,549.70 L 315.11,551.52 L 315.51,555.17 L 315.82,556.98 L 317.06,560.49 L 317.78,562.21 L 319.83,565.43 L 320.95,566.98 L 323.78,569.75 L 328.88,573.21 L 330.40,574.00 L 333.36,575.07 L 334.83,575.52 L 337.77,575.91 L 339.24,576.02 L 342.23,575.73 L 343.74,575.50 M 564.47,378.00 L 563.36,377.45 L 561.11,375.74 L 560.59,375.29 L 559.70,374.39 L 558.72,373.10 L 558.16,372.15 L 557.45,369.59 L 557.17,368.25 L 557.03,365.33 L 557.03,363.88 L 557.45,361.17 L 557.59,360.54 L 557.97,359.40 L 558.70,357.97 L 559.30,357.11 L 560.43,355.75 L 560.74,355.41 L 561.49,354.74 L 561.89,354.39 L 562.90,353.63 L 563.45,353.23 L 564.82,352.32 L 565.56,351.83 L 567.41,350.67 L 568.40,350.06 L 570.83,348.59 L 575.25,345.94 L 576.87,344.98 L 579.81,343.14 L 581.22,342.25 L 583.55,340.70 L 584.08,340.34 L 584.99,339.70 L 585.41,339.40 L 586.07,338.89 L 586.37,338.65 L 586.76,338.30 L 587.00,337.96 L 587.00,337.70 L 587.44,337.28 L 588.49,337.00 L 588.60,337.00 L 589.00,336.88 L 589.23,336.80 L 589.84,336.53 L 590.50,336.23 L 592.29,335.28 L 593.25,334.77 L 595.45,333.50 L 596.58,332.84 L 598.92,331.42 L 600.08,330.71 L 602.30,329.30 L 603.37,328.61 L 605.20,327.36 L 606.05,326.77 L 607.24,325.85 L 607.48,325.65 L 607.80,325.34 L 608.00,325.02 L 608.00,324.96 L 607.62,324.34 L 607.37,323.96 L 606.54,322.74 L 606.07,322.07 L 604.84,320.33 L 604.17,319.40 L 602.60,317.22 L 601.77,316.08 L 599.90,313.52 L 598.94,312.20 L 596.84,309.35 L 594.69,306.43 L 589.93,300.01 L 587.51,296.76 L 582.54,290.12 L 580.06,286.83 L 575.32,280.56 L 574.17,279.04 L 571.99,276.18 L 570.92,274.78 L 568.95,272.22 L 568.00,270.98 L 566.29,268.79 L 564.09,266.00 L 560.95,262.08 L 554.57,254.76 L 551.36,251.19 L 544.80,244.56 L 541.49,241.34 L 534.74,235.39 L 531.34,232.50 L 524.37,227.21 L 520.85,224.65 L 513.64,220.01 L 510.01,217.77 L 502.54,213.75 L 498.77,211.82 L 491.02,208.43 L 479.05,204.00 L 476.82,203.27 L 472.64,202.00 L 470.60,201.40 L 466.71,200.37 L 462.87,199.39 L 455.50,198.06 L 453.64,197.78 L 449.85,197.34 L 447.94,197.14 L 443.93,196.86 L 441.89,196.74 L 437.54,196.60 L 430.50,196.53 L 428.23,196.53 L 424.09,196.60 L 422.08,196.64 L 418.39,196.79 L 416.59,196.88 L 413.24,197.13 L 411.60,197.27 L 408.51,197.63 L 405.46,198.03 L 399.69,199.21 L 390.74,201.66 L 389.48,202.05 L 387.31,202.65 L 386.28,202.91 L 384.58,203.24 L 383.79,203.37 L 382.60,203.43 L 381.42,203.22 L 381.27,203.13 L 381.17,202.91 L 381.16,202.78 L 381.34,202.46 L 381.47,202.29 L 381.95,201.86 L 382.23,201.62 L 383.04,201.07 L 383.49,200.77 L 384.65,200.07 L 385.28,199.70 L 386.82,198.84 L 387.63,198.39 L 389.57,197.36 L 392.94,195.61 L 397.50,193.26 L 406.97,189.03 L 411.76,186.99 L 421.66,183.37 L 426.67,181.64 L 436.98,178.64 L 442.18,177.22 L 452.86,174.86 L 458.25,173.75 L 469.26,172.03 L 474.81,171.24 L 486.12,170.16 L 491.81,169.70 L 503.38,169.27 L 521.00,169.36 L 525.04,169.50 L 532.80,169.95 L 536.63,170.22 L 544.04,170.94 L 547.71,171.34 L 554.84,172.34 L 558.39,172.88 L 565.33,174.19 L 568.79,174.88 L 575.63,176.49 L 579.04,177.34 L 585.85,179.29 L 589.26,180.31 L 596.11,182.60 L 606.54,186.45 L 611.91,188.55 L 622.21,193.26 L 627.29,195.69 L 637.00,201.07 L 641.78,203.84 L 650.90,209.88 L 655.39,212.98 L 663.89,219.66 L 668.07,223.08 L 675.95,230.40 L 679.81,234.14 L 687.06,242.09 L 690.60,246.15 L 697.19,254.71 L 706.33,268.24 L 706.91,269.17 L 708.01,270.86 L 708.55,271.67 L 709.51,273.01 L 709.96,273.62 L 710.66,274.46 L 711.30,274.99 L 711.41,274.99 L 712.06,274.71 L 712.44,274.52 L 713.54,273.92 L 714.13,273.59 L 715.52,272.76 L 717.80,271.34 L 719.44,270.29 L 723.02,268.04 L 724.84,266.91 L 728.63,264.59 L 732.44,262.28 L 739.89,257.90 L 741.67,256.86 L 744.96,254.99 L 746.54,254.09 L 749.27,252.59 L 750.55,251.90 L 752.54,250.87 L 752.99,250.65 L 753.70,250.32 L 754.48,250.01 L 755.41,249.70 L 757.26,249.42 L 758.17,249.33 L 759.96,249.47 L 760.84,249.59 L 762.52,250.11 L 763.35,250.41 L 764.87,251.28 L 765.61,251.76 L 766.94,252.95 L 767.57,253.58 L 768.64,255.07 L 769.14,255.84 L 769.92,257.58 L 770.69,260.45 L 770.76,260.91 L 770.71,262.01 L 770.64,262.61 L 770.17,264.25 L 770.01,264.71 L 769.60,265.79 L 769.37,266.36 L 768.79,267.70 L 768.48,268.40 L 767.71,270.03 L 767.30,270.89 L 766.33,272.86 L 765.81,273.89 L 764.61,276.25 L 763.98,277.48 L 762.52,280.26 L 761.76,281.70 L 760.04,284.95 L 759.14,286.64 L 757.12,290.40 L 756.07,292.35 L 753.73,296.66 L 752.52,298.90 L 749.85,303.81 L 748.47,306.34 L 745.44,311.90 L 740.47,321.00 L 738.93,323.82 L 735.70,329.75 L 734.09,332.71 L 731.00,338.42 L 730.25,339.80 L 728.84,342.41 L 728.16,343.68 L 726.91,346.00 L 726.31,347.12 L 725.26,349.07 L 723.97,351.50 L 722.80,353.72 L 720.71,357.52 L 719.70,359.32 L 717.86,362.37 L 716.96,363.81 L 715.24,366.24 L 714.39,367.39 L 712.67,369.32 L 711.81,370.24 L 709.98,371.81 L 709.04,372.55 L 706.98,373.88 L 705.90,374.52 L 703.49,375.73 L 699.34,377.55 L 693.50,379.95 L 631.00,379.98 L 627.22,379.98 L 620.33,379.98 L 616.99,379.98 L 610.94,379.98 L 608.01,379.97 L 602.74,379.97 L 600.19,379.96 L 595.64,379.95 L 593.45,379.94 L 589.56,379.92 L 587.69,379.90 L 584.40,379.87 L 582.83,379.85 L 580.09,379.81 L 578.78,379.78 L 576.52,379.72 L 575.45,379.69 L 573.62,379.61 L 572.75,379.57 L 571.29,379.48 L 570.60,379.43 L 569.45,379.32 L 568.91,379.26 L 568.01,379.13 L 567.16,378.99 L 565.97,378.64 L 565.42,378.46 M 337.87,330.76 L 336.67,330.01 L 334.49,328.65 L 333.43,327.99 L 331.52,326.79 L 330.60,326.21 L 328.94,325.16 L 328.14,324.65 L 326.72,323.74 L 325.35,322.86 L 323.25,321.45 L 322.30,320.80 L 320.92,319.75 L 320.31,319.27 L 319.52,318.48 L 319.18,318.11 L 318.82,317.46 L 318.72,315.53 L 318.82,314.91 L 319.17,313.44 L 319.37,312.66 L 319.91,310.91 L 320.50,309.09 L 322.15,304.85 L 323.04,302.67 L 325.17,298.01 L 328.70,291.04 L 330.72,287.30 L 335.01,280.26 L 337.20,276.82 L 341.79,270.36 L 344.13,267.21 L 349.02,261.36 L 351.50,258.51 L 356.67,253.27 L 359.29,250.73 L 364.72,246.13 L 367.47,243.91 L 373.15,239.94 L 376.02,238.04 L 381.94,234.74 L 391.06,230.55 L 397.62,227.94 L 404.56,231.82 L 405.51,232.35 L 407.75,233.61 L 408.89,234.26 L 411.30,235.63 L 412.49,236.31 L 414.78,237.63 L 417.75,239.35 L 418.61,239.85 L 420.63,241.03 L 421.67,241.63 L 423.85,242.90 L 424.94,243.53 L 427.02,244.74 L 429.75,246.32 L 431.25,247.19 L 433.71,248.61 L 434.85,249.28 L 436.62,250.36 L 437.42,250.86 L 438.55,251.66 L 439.04,252.03 L 439.58,252.62 L 439.79,252.89 L 439.79,253.34 L 439.74,253.55 L 439.26,253.91 L 438.96,254.10 L 438.05,254.46 L 436.25,255.06 L 435.33,255.36 L 433.10,256.23 L 431.94,256.71 L 429.35,257.88 L 426.68,259.11 L 420.82,262.15 L 417.90,263.72 L 412.34,266.98 L 411.02,267.78 L 408.64,269.33 L 405.56,271.49 L 402.83,273.54 L 397.73,277.90 L 395.24,280.13 L 390.60,284.85 L 388.34,287.26 L 384.16,292.37 L 382.12,294.98 L 378.36,300.51 L 376.53,303.32 L 373.19,309.29 L 371.56,312.34 L 368.61,318.78 L 367.19,322.06 L 364.61,328.99 L 361.16,339.99 L 360.96,340.68 L 360.23,341.83 L 358.98,342.74 L 358.88,342.76 L 358.28,342.54 L 357.92,342.39 L 356.86,341.87 L 356.27,341.58 L 354.79,340.79 L 354.00,340.36 L 352.17,339.33 L 351.21,338.78 L 349.08,337.55 L 347.98,336.90 L 345.61,335.49 L 343.19,334.04 Z" fill="rgba(131,190,30,1)"/>
</g>
</svg>